<svg xmlns="http://www.w3.org/2000/svg" xmlns:xlink="http://www.w3.org/1999/xlink" width="656.443" height="431.384" viewBox="0 0 656.443 431.384">
  <defs>
    <clipPath id="clip-path">
      <rect id="Rectángulo_298833" data-name="Rectángulo 298833" width="656.443" height="431.384" fill="none"/>
    </clipPath>
  </defs>
  <g id="Grupo_150316" data-name="Grupo 150316" transform="translate(-472 -3811.5)">
    <g id="Grupo_150098" data-name="Grupo 150098" transform="translate(472 3811.5)">
      <g id="Grupo_150097" data-name="Grupo 150097" clip-path="url(#clip-path)">
        <path id="Trazado_206790" data-name="Trazado 206790" d="M134.013,383.581H15.893a7.634,7.634,0,0,1-7.635-7.634V283.8a7.635,7.635,0,0,1,7.635-7.635h118.12a7.634,7.634,0,0,1,7.634,7.635v92.143a7.634,7.634,0,0,1-7.634,7.634" fill="#b3b3b3"/>
        <path id="Trazado_206791" data-name="Trazado 206791" d="M379.406,133.753H262.69a8.338,8.338,0,0,1-8.337-8.337V14.006a8.337,8.337,0,0,1,8.337-8.337H379.406a8.337,8.337,0,0,1,8.337,8.337v111.41a8.338,8.338,0,0,1-8.337,8.337" fill="#b3b3b3"/>
        <path id="Trazado_206792" data-name="Trazado 206792" d="M388.412,431.384H265.053a10.7,10.7,0,0,1-10.7-10.7V247.693a10.7,10.7,0,0,1,10.7-10.7H388.412a10.7,10.7,0,0,1,10.7,10.7V420.685a10.7,10.7,0,0,1-10.7,10.7" fill="#b3b3b3"/>
        <path id="Trazado_206793" data-name="Trazado 206793" d="M639.15,378.316H523.83a9.036,9.036,0,0,1-9.035-9.035V236.918a9.036,9.036,0,0,1,9.035-9.035H639.15a9.035,9.035,0,0,1,9.035,9.035V369.281a9.035,9.035,0,0,1-9.035,9.035" fill="#b3b3b3"/>
        <path id="Trazado_206794" data-name="Trazado 206794" d="M373.738,128.085H257.022a8.338,8.338,0,0,1-8.337-8.337V8.338A8.337,8.337,0,0,1,257.022,0H373.738a8.337,8.337,0,0,1,8.337,8.337v111.41a8.338,8.338,0,0,1-8.337,8.337" fill="#f2f2f2"/>
        <path id="Trazado_206795" data-name="Trazado 206795" d="M382.075,31.832H248.686V6.158A6.158,6.158,0,0,1,254.843,0H375.917a6.158,6.158,0,0,1,6.158,6.158Z" fill="#ccc"/>
      </g>
    </g>
    <path id="Trazado_207136" data-name="Trazado 207136" d="M3.359-4.008V0H1.016V-11.375H5.453a5.134,5.134,0,0,1,2.254.469A3.454,3.454,0,0,1,9.2-9.574a3.714,3.714,0,0,1,.523,1.965A3.266,3.266,0,0,1,8.582-4.973a4.767,4.767,0,0,1-3.168.965Zm0-1.9H5.453a2.059,2.059,0,0,0,1.418-.437,1.591,1.591,0,0,0,.488-1.25,1.876,1.876,0,0,0-.492-1.352,1.839,1.839,0,0,0-1.359-.531H3.359Zm12.578-.43a6.134,6.134,0,0,0-.812-.062,1.654,1.654,0,0,0-1.68.867V0H11.188V-8.453H13.32l.063,1.008a2.092,2.092,0,0,1,1.883-1.164,2.366,2.366,0,0,1,.7.1ZM16.119-4.3A5.013,5.013,0,0,1,16.6-6.547,3.546,3.546,0,0,1,18-8.07a4.069,4.069,0,0,1,2.113-.539A3.849,3.849,0,0,1,22.9-7.562a4.2,4.2,0,0,1,1.207,2.844l.016.578A4.418,4.418,0,0,1,23.041-1.02,3.775,3.775,0,0,1,20.126.156a3.793,3.793,0,0,1-2.918-1.172A4.5,4.5,0,0,1,16.119-4.2Zm2.258.16A3.16,3.16,0,0,0,18.83-2.3a1.5,1.5,0,0,0,1.3.638,1.5,1.5,0,0,0,1.281-.63,3.457,3.457,0,0,0,.461-2.015,3.128,3.128,0,0,0-.461-1.831,1.5,1.5,0,0,0-1.3-.649,1.474,1.474,0,0,0-1.281.646A3.516,3.516,0,0,0,18.376-4.144Zm6.789-.145a5.094,5.094,0,0,1,.887-3.148,2.877,2.877,0,0,1,2.426-1.172,2.589,2.589,0,0,1,2.039.922V-12h2.266V0H30.744l-.109-.9A2.657,2.657,0,0,1,28.462.156,2.869,2.869,0,0,1,26.068-1.02,5.258,5.258,0,0,1,25.166-4.289Zm2.258.168A3.337,3.337,0,0,0,27.837-2.3a1.349,1.349,0,0,0,1.2.634,1.511,1.511,0,0,0,1.477-.884V-5.889a1.489,1.489,0,0,0-1.461-.884Q27.423-6.773,27.423-4.121ZM39.6-.859A2.831,2.831,0,0,1,37.283.156a2.67,2.67,0,0,1-2.074-.781,3.335,3.335,0,0,1-.73-2.289V-8.453h2.258v5.467q0,1.322,1.2,1.322a1.63,1.63,0,0,0,1.578-.8V-8.453h2.266V0H39.658ZM47-1.664a1.481,1.481,0,0,0,1.016-.344,1.2,1.2,0,0,0,.406-.914h2.117a2.9,2.9,0,0,1-.469,1.574A3.093,3.093,0,0,1,48.81-.238a3.949,3.949,0,0,1-1.77.395A3.67,3.67,0,0,1,44.181-1,4.56,4.56,0,0,1,43.134-4.18v-.148a4.508,4.508,0,0,1,1.039-3.117,3.627,3.627,0,0,1,2.852-1.164,3.555,3.555,0,0,1,2.543.9,3.2,3.2,0,0,1,.973,2.4H48.423a1.551,1.551,0,0,0-.406-1.072,1.354,1.354,0,0,0-1.031-.412,1.36,1.36,0,0,0-1.191.575,3.333,3.333,0,0,0-.4,1.866v.235a3.375,3.375,0,0,0,.4,1.878A1.377,1.377,0,0,0,47-1.664Zm7.531-8.867v2.078h1.445V-6.8H54.533v4.219a1.007,1.007,0,0,0,.18.672.9.9,0,0,0,.688.2,3.6,3.6,0,0,0,.664-.055V-.047a4.648,4.648,0,0,1-1.367.2,2.156,2.156,0,0,1-2.422-2.4V-6.8H51.041V-8.453h1.234v-2.078ZM56.442-4.3a5.013,5.013,0,0,1,.484-2.242A3.546,3.546,0,0,1,58.321-8.07a4.069,4.069,0,0,1,2.113-.539,3.849,3.849,0,0,1,2.793,1.047,4.2,4.2,0,0,1,1.207,2.844l.016.578A4.418,4.418,0,0,1,63.364-1.02,3.775,3.775,0,0,1,60.45.156a3.793,3.793,0,0,1-2.918-1.172A4.5,4.5,0,0,1,56.442-4.2Zm2.258.16A3.16,3.16,0,0,0,59.153-2.3a1.5,1.5,0,0,0,1.3.638,1.5,1.5,0,0,0,1.281-.63,3.457,3.457,0,0,0,.461-2.015,3.128,3.128,0,0,0-.461-1.831,1.5,1.5,0,0,0-1.3-.649,1.474,1.474,0,0,0-1.281.646A3.516,3.516,0,0,0,58.7-4.144Z" transform="translate(757.002 3834.134)" fill="#12263f"/>
    <path id="Trazado_207135" data-name="Trazado 207135" d="M2.93,0H1.43V-11.375h1.5ZM5.672,0V-11.375H8.883a5.169,5.169,0,0,1,2.625.656A4.438,4.438,0,0,1,13.27-8.852,6.078,6.078,0,0,1,13.9-6.07v.727a6.1,6.1,0,0,1-.621,2.82A4.369,4.369,0,0,1,11.5-.664,5.5,5.5,0,0,1,8.82,0Zm1.5-10.148v8.922H8.75a3.434,3.434,0,0,0,2.7-1.079,4.458,4.458,0,0,0,.965-3.073v-.665a4.529,4.529,0,0,0-.91-3.014,3.239,3.239,0,0,0-2.582-1.091Zm10.492,5.7V0h-1.5V-11.375h4.2a4.215,4.215,0,0,1,2.926.953A3.231,3.231,0,0,1,24.344-7.9a3.189,3.189,0,0,1-1.035,2.551,4.4,4.4,0,0,1-2.965.895Zm0-1.227h2.7A2.7,2.7,0,0,0,22.2-6.247a2.075,2.075,0,0,0,.641-1.64A2.143,2.143,0,0,0,22.2-9.515a2.525,2.525,0,0,0-1.758-.634H17.664ZM30.117-7.156a4.331,4.331,0,0,0-.711-.055A1.9,1.9,0,0,0,27.477-6V0H26.031V-8.453h1.406l.023.977a2.251,2.251,0,0,1,2.016-1.133,1.477,1.477,0,0,1,.641.109ZM30.746-4.3a4.993,4.993,0,0,1,.488-2.234A3.643,3.643,0,0,1,32.594-8.07a3.7,3.7,0,0,1,1.988-.539,3.565,3.565,0,0,1,2.793,1.2,4.6,4.6,0,0,1,1.066,3.18v.1a5.036,5.036,0,0,1-.473,2.215A3.589,3.589,0,0,1,36.617-.391,3.743,3.743,0,0,1,34.6.156a3.556,3.556,0,0,1-2.785-1.2A4.575,4.575,0,0,1,30.746-4.2Zm1.453.172a3.616,3.616,0,0,0,.652,2.258,2.088,2.088,0,0,0,1.746.852,2.075,2.075,0,0,0,1.75-.863A3.955,3.955,0,0,0,37-4.3a3.61,3.61,0,0,0-.66-2.254,2.1,2.1,0,0,0-1.754-.863,2.075,2.075,0,0,0-1.727.852A3.925,3.925,0,0,0,32.2-4.133ZM39.9-4.3a4.952,4.952,0,0,1,.922-3.129,2.915,2.915,0,0,1,2.414-1.184A2.932,2.932,0,0,1,45.59-7.594V-12h1.445V0H45.707l-.07-.906A2.943,2.943,0,0,1,43.223.156a2.887,2.887,0,0,1-2.395-1.2A5.008,5.008,0,0,1,39.9-4.187Zm1.445.164a3.749,3.749,0,0,0,.594,2.25,1.92,1.92,0,0,0,1.641.813A2.108,2.108,0,0,0,45.59-2.3V-6.187a2.125,2.125,0,0,0-1.992-1.2,1.929,1.929,0,0,0-1.656.82A4.128,4.128,0,0,0,41.348-4.133ZM54.5-.836A3.07,3.07,0,0,1,52.02.156a2.628,2.628,0,0,1-2.059-.785,3.4,3.4,0,0,1-.715-2.324v-5.5h1.445v5.461q0,1.922,1.563,1.922a2.163,2.163,0,0,0,2.2-1.234V-8.453H55.9V0H54.528Zm6.992-.187a2.082,2.082,0,0,0,1.352-.469,1.649,1.649,0,0,0,.641-1.172h1.367a2.621,2.621,0,0,1-.5,1.383,3.293,3.293,0,0,1-1.23,1.047,3.55,3.55,0,0,1-1.629.391A3.482,3.482,0,0,1,58.742-1a4.59,4.59,0,0,1-1.02-3.152v-.242a5.089,5.089,0,0,1,.453-2.2,3.451,3.451,0,0,1,1.3-1.492,3.7,3.7,0,0,1,2-.531,3.39,3.39,0,0,1,2.363.852,3.043,3.043,0,0,1,1,2.211H63.481a1.992,1.992,0,0,0-.621-1.348,1.932,1.932,0,0,0-1.379-.527,2.023,2.023,0,0,0-1.707.793,3.724,3.724,0,0,0-.605,2.293v.273a3.65,3.65,0,0,0,.6,2.25A2.033,2.033,0,0,0,61.488-1.023ZM68.434-10.5v2.047h1.578v1.117H68.434v5.249a1.173,1.173,0,0,0,.211.763.888.888,0,0,0,.719.254,3.5,3.5,0,0,0,.688-.094V0a4.215,4.215,0,0,1-1.109.155A1.8,1.8,0,0,1,67.481-.43a2.517,2.517,0,0,1-.492-1.664V-7.336H65.449V-8.453h1.539V-10.5Zm2.6,6.2a4.993,4.993,0,0,1,.488-2.234A3.643,3.643,0,0,1,72.88-8.07a3.7,3.7,0,0,1,1.988-.539,3.565,3.565,0,0,1,2.793,1.2,4.6,4.6,0,0,1,1.066,3.18v.1a5.036,5.036,0,0,1-.473,2.215A3.589,3.589,0,0,1,76.9-.391a3.743,3.743,0,0,1-2.02.547,3.556,3.556,0,0,1-2.785-1.2A4.575,4.575,0,0,1,71.032-4.2Zm1.453.172a3.616,3.616,0,0,0,.652,2.258,2.088,2.088,0,0,0,1.746.852,2.075,2.075,0,0,0,1.75-.863A3.955,3.955,0,0,0,77.282-4.3a3.61,3.61,0,0,0-.66-2.254,2.1,2.1,0,0,0-1.754-.863,2.075,2.075,0,0,0-1.727.852A3.925,3.925,0,0,0,72.485-4.133Z" transform="translate(757.002 3870.758)" fill="#12263f"/>
    <path id="Trazado_207134" data-name="Trazado 207134" d="M3.258-11.375,6.977-2.094,10.7-11.375h1.945V0h-1.5V-4.43l.141-4.781L7.547,0H6.4L2.672-9.187,2.82-4.43V0H1.32V-11.375ZM20.281,0a3.036,3.036,0,0,1-.2-.891A3.225,3.225,0,0,1,17.672.156a2.984,2.984,0,0,1-2.051-.707,2.287,2.287,0,0,1-.8-1.793,2.39,2.39,0,0,1,1-2.051,4.733,4.733,0,0,1,2.824-.73h1.406v-.664A1.623,1.623,0,0,0,19.6-7a1.821,1.821,0,0,0-1.336-.449,2.108,2.108,0,0,0-1.3.391,1.151,1.151,0,0,0-.523.945H14.992a2,2,0,0,1,.449-1.223,3.066,3.066,0,0,1,1.219-.934,4.1,4.1,0,0,1,1.691-.344,3.342,3.342,0,0,1,2.289.73A2.635,2.635,0,0,1,21.5-5.867v3.891a4.757,4.757,0,0,0,.3,1.852V0Zm-2.4-1.1a2.54,2.54,0,0,0,1.289-.352,2.127,2.127,0,0,0,.883-.914V-4.1H18.922q-2.656,0-2.656,1.555a1.316,1.316,0,0,0,.453,1.063A1.742,1.742,0,0,0,17.883-1.1Zm9.969-6.055a4.331,4.331,0,0,0-.711-.055A1.9,1.9,0,0,0,25.211-6V0H23.766V-8.453h1.406l.023.977a2.251,2.251,0,0,1,2.016-1.133,1.477,1.477,0,0,1,.641.109Zm4.426,6.133a2.082,2.082,0,0,0,1.352-.469,1.649,1.649,0,0,0,.641-1.172h1.367a2.621,2.621,0,0,1-.5,1.383,3.293,3.293,0,0,1-1.23,1.047,3.55,3.55,0,0,1-1.629.391A3.482,3.482,0,0,1,29.532-1a4.59,4.59,0,0,1-1.02-3.152v-.242a5.089,5.089,0,0,1,.453-2.2,3.451,3.451,0,0,1,1.3-1.492,3.7,3.7,0,0,1,2-.531,3.39,3.39,0,0,1,2.363.852,3.043,3.043,0,0,1,1,2.211H34.27a1.992,1.992,0,0,0-.621-1.348,1.932,1.932,0,0,0-1.379-.527,2.023,2.023,0,0,0-1.707.793,3.724,3.724,0,0,0-.605,2.293v.273a3.65,3.65,0,0,0,.6,2.25A2.033,2.033,0,0,0,32.278-1.023ZM42.481,0a3.036,3.036,0,0,1-.2-.891A3.225,3.225,0,0,1,39.872.156a2.984,2.984,0,0,1-2.051-.707,2.287,2.287,0,0,1-.8-1.793,2.39,2.39,0,0,1,1-2.051,4.733,4.733,0,0,1,2.824-.73h1.406v-.664A1.623,1.623,0,0,0,41.8-7a1.821,1.821,0,0,0-1.336-.449,2.107,2.107,0,0,0-1.3.391,1.151,1.151,0,0,0-.523.945H37.192a2,2,0,0,1,.449-1.223,3.066,3.066,0,0,1,1.219-.934,4.1,4.1,0,0,1,1.691-.344,3.342,3.342,0,0,1,2.289.73A2.635,2.635,0,0,1,43.7-5.867v3.891A4.757,4.757,0,0,0,44-.125V0Zm-2.4-1.1a2.54,2.54,0,0,0,1.289-.352,2.127,2.127,0,0,0,.883-.914V-4.1H41.122q-2.656,0-2.656,1.555a1.316,1.316,0,0,0,.453,1.063A1.742,1.742,0,0,0,40.083-1.1Z" transform="translate(757.002 3894.758)" fill="#12263f"/>
    <path id="Trazado_207133" data-name="Trazado 207133" d="M2.82-4.453V0H1.32V-11.375h4.2a4.215,4.215,0,0,1,2.926.953A3.231,3.231,0,0,1,9.5-7.9,3.189,3.189,0,0,1,8.465-5.348,4.4,4.4,0,0,1,5.5-4.453Zm0-1.227h2.7a2.7,2.7,0,0,0,1.844-.567A2.075,2.075,0,0,0,8-7.887a2.143,2.143,0,0,0-.641-1.628A2.525,2.525,0,0,0,5.6-10.148H2.82ZM15.273-7.156a4.331,4.331,0,0,0-.711-.055A1.9,1.9,0,0,0,12.633-6V0H11.188V-8.453h1.406l.023.977a2.251,2.251,0,0,1,2.016-1.133,1.477,1.477,0,0,1,.641.109ZM15.918-4.3a4.993,4.993,0,0,1,.488-2.234A3.643,3.643,0,0,1,17.766-8.07a3.7,3.7,0,0,1,1.988-.539,3.565,3.565,0,0,1,2.793,1.2,4.6,4.6,0,0,1,1.066,3.18v.1a5.036,5.036,0,0,1-.473,2.215A3.589,3.589,0,0,1,21.79-.391a3.743,3.743,0,0,1-2.02.547,3.556,3.556,0,0,1-2.785-1.2A4.575,4.575,0,0,1,15.918-4.2Zm1.453.172a3.616,3.616,0,0,0,.652,2.258,2.088,2.088,0,0,0,1.746.852,2.075,2.075,0,0,0,1.75-.863A3.955,3.955,0,0,0,22.168-4.3a3.61,3.61,0,0,0-.66-2.254,2.1,2.1,0,0,0-1.754-.863,2.075,2.075,0,0,0-1.727.852A3.925,3.925,0,0,0,17.372-4.133Zm7.7-.164A4.952,4.952,0,0,1,26-7.426a2.915,2.915,0,0,1,2.414-1.184,2.932,2.932,0,0,1,2.352,1.016V-12h1.445V0H30.879l-.07-.906A2.943,2.943,0,0,1,28.4.156,2.887,2.887,0,0,1,26-1.047a5.008,5.008,0,0,1-.926-3.141Zm1.445.164a3.749,3.749,0,0,0,.594,2.25,1.92,1.92,0,0,0,1.641.813A2.108,2.108,0,0,0,30.762-2.3V-6.187a2.125,2.125,0,0,0-1.992-1.2,1.929,1.929,0,0,0-1.656.82A4.128,4.128,0,0,0,26.52-4.133Zm13.148,3.3a3.07,3.07,0,0,1-2.477.992,2.628,2.628,0,0,1-2.059-.785,3.4,3.4,0,0,1-.715-2.324v-5.5h1.445v5.461q0,1.922,1.563,1.922a2.163,2.163,0,0,0,2.2-1.234V-8.453h1.445V0H39.7Zm6.992-.187a2.082,2.082,0,0,0,1.352-.469,1.649,1.649,0,0,0,.641-1.172H50.02a2.621,2.621,0,0,1-.5,1.383A3.293,3.293,0,0,1,48.29-.234a3.55,3.55,0,0,1-1.629.391A3.482,3.482,0,0,1,43.915-1,4.59,4.59,0,0,1,42.9-4.148v-.242a5.089,5.089,0,0,1,.453-2.2,3.451,3.451,0,0,1,1.3-1.492,3.7,3.7,0,0,1,2-.531,3.39,3.39,0,0,1,2.363.852,3.043,3.043,0,0,1,1,2.211H48.653a1.992,1.992,0,0,0-.621-1.348,1.932,1.932,0,0,0-1.379-.527,2.023,2.023,0,0,0-1.707.793,3.724,3.724,0,0,0-.605,2.293v.273a3.65,3.65,0,0,0,.6,2.25A2.033,2.033,0,0,0,46.661-1.023ZM53.606-10.5v2.047h1.578v1.117H53.606v5.249a1.173,1.173,0,0,0,.211.763.888.888,0,0,0,.719.254,3.5,3.5,0,0,0,.688-.094V0a4.215,4.215,0,0,1-1.109.155A1.8,1.8,0,0,1,52.653-.43a2.517,2.517,0,0,1-.492-1.664V-7.336H50.622V-8.453h1.539V-10.5Zm2.6,6.2a4.993,4.993,0,0,1,.488-2.234A3.643,3.643,0,0,1,58.052-8.07a3.7,3.7,0,0,1,1.988-.539,3.565,3.565,0,0,1,2.793,1.2A4.6,4.6,0,0,1,63.9-4.234v.1a5.036,5.036,0,0,1-.473,2.215A3.589,3.589,0,0,1,62.076-.391a3.743,3.743,0,0,1-2.02.547,3.556,3.556,0,0,1-2.785-1.2A4.575,4.575,0,0,1,56.2-4.2Zm1.453.172a3.616,3.616,0,0,0,.652,2.258,2.088,2.088,0,0,0,1.746.852,2.075,2.075,0,0,0,1.75-.863A3.955,3.955,0,0,0,62.455-4.3a3.61,3.61,0,0,0-.66-2.254,2.1,2.1,0,0,0-1.754-.863,2.075,2.075,0,0,0-1.727.852A3.925,3.925,0,0,0,57.658-4.133Z" transform="translate(757.002 3918.758)" fill="#12263f"/>
    <g id="Grupo_150100" data-name="Grupo 150100" transform="translate(472 3811.5)">
      <g id="Grupo_150099" data-name="Grupo 150099" clip-path="url(#clip-path)">
        <path id="Trazado_206796" data-name="Trazado 206796" d="M277.24,10.279a1.034,1.034,0,0,0-.965-1.1l-9.388.1a1.034,1.034,0,0,1-.965-1.1V7.789a1.034,1.034,0,0,0-.965-1.1l-4.86.053a1.062,1.062,0,0,0-.965,1.125V13H277.24Z" fill="#4d4d4d"/>
        <path id="Trazado_206797" data-name="Trazado 206797" d="M259.133,13v9.575a1.034,1.034,0,0,0,.965,1.1l16.177-.177a1.06,1.06,0,0,0,.965-1.125V13Z" fill="gray"/>
        <path id="Trazado_206798" data-name="Trazado 206798" d="M382.744,425.716H259.385a10.7,10.7,0,0,1-10.7-10.7V242.025a10.7,10.7,0,0,1,10.7-10.7H382.744a10.7,10.7,0,0,1,10.7,10.7V415.017a10.7,10.7,0,0,1-10.7,10.7" fill="#f2f2f2"/>
        <path id="Trazado_206799" data-name="Trazado 206799" d="M393.443,263.157H248.685V237.74a6.415,6.415,0,0,1,6.415-6.415H387.028a6.415,6.415,0,0,1,6.415,6.415Z" fill="#ccc"/>
      </g>
    </g>
    <path id="Trazado_207124" data-name="Trazado 207124" d="M5.219-2.82,7.8-11.375h2.609L6.445,0H4L.055-11.375h2.6ZM14.883.156A4.15,4.15,0,0,1,11.855-.984a4.054,4.054,0,0,1-1.168-3.039v-.219A5.106,5.106,0,0,1,11.18-6.52a3.612,3.612,0,0,1,1.395-1.547,3.914,3.914,0,0,1,2.059-.543,3.508,3.508,0,0,1,2.73,1.094,4.444,4.444,0,0,1,1,3.1v.922H12.976a2.1,2.1,0,0,0,.66,1.328,2,2,0,0,0,1.395.5,2.437,2.437,0,0,0,2.039-.945L18.18-1.367A3.389,3.389,0,0,1,16.8-.246,4.511,4.511,0,0,1,14.883.156Zm-.258-6.945a1.411,1.411,0,0,0-1.09.455A2.357,2.357,0,0,0,13-5.031h3.141v-.181a1.681,1.681,0,0,0-.406-1.165A1.456,1.456,0,0,0,14.625-6.789Zm7.094-1.664.07.977a2.951,2.951,0,0,1,2.43-1.133,2.453,2.453,0,0,1,2,.789,3.682,3.682,0,0,1,.672,2.359V0H24.633V-5.406a1.465,1.465,0,0,0-.312-1.043,1.4,1.4,0,0,0-1.039-.324,1.553,1.553,0,0,0-1.43.813V0H19.594V-8.453ZM31.3-10.531v2.078H32.75V-6.8H31.3v4.219a1.007,1.007,0,0,0,.18.672.9.9,0,0,0,.688.2,3.6,3.6,0,0,0,.664-.055V-.047a4.648,4.648,0,0,1-1.367.2,2.156,2.156,0,0,1-2.422-2.4V-6.8H27.812V-8.453h1.234v-2.078ZM38.906,0a2.507,2.507,0,0,1-.227-.758,2.732,2.732,0,0,1-2.133.914,3,3,0,0,1-2.059-.719,2.312,2.312,0,0,1-.816-1.812,2.389,2.389,0,0,1,1-2.062,4.915,4.915,0,0,1,2.879-.727h1.039v-.484a1.393,1.393,0,0,0-.3-.937,1.183,1.183,0,0,0-.949-.352,1.345,1.345,0,0,0-.895.273.929.929,0,0,0-.324.75H33.859a2.268,2.268,0,0,1,.453-1.359,3,3,0,0,1,1.281-.98,4.669,4.669,0,0,1,1.859-.355,3.689,3.689,0,0,1,2.48.785,2.747,2.747,0,0,1,.918,2.207v3.664a4.041,4.041,0,0,0,.336,1.82V0ZM37.039-1.57a1.945,1.945,0,0,0,.922-.223,1.462,1.462,0,0,0,.625-.6V-3.844h-.844q-1.7,0-1.8,1.172l-.008.133a.9.9,0,0,0,.3.7A1.153,1.153,0,0,0,37.039-1.57Zm10.125-.766a.727.727,0,0,0-.41-.652,4.659,4.659,0,0,0-1.316-.426q-3.016-.633-3.016-2.562a2.323,2.323,0,0,1,.934-1.879A3.766,3.766,0,0,1,45.8-8.609a4.053,4.053,0,0,1,2.574.758,2.388,2.388,0,0,1,.965,1.969H47.078a1.092,1.092,0,0,0-.312-.8A1.322,1.322,0,0,0,45.789-7a1.351,1.351,0,0,0-.883.258.814.814,0,0,0-.312.656.7.7,0,0,0,.355.605,3.657,3.657,0,0,0,1.2.4A9.8,9.8,0,0,1,47.57-4.7,2.336,2.336,0,0,1,49.359-2.43a2.2,2.2,0,0,1-.992,1.871A4.28,4.28,0,0,1,45.8.156a4.47,4.47,0,0,1-1.887-.379,3.166,3.166,0,0,1-1.293-1.039,2.414,2.414,0,0,1-.469-1.426H44.3a1.179,1.179,0,0,0,.445.922,1.766,1.766,0,0,0,1.109.32,1.635,1.635,0,0,0,.98-.246A.766.766,0,0,0,47.164-2.336Z" transform="translate(760.002 4065.46)" fill="#12263f"/>
    <path id="Trazado_207122" data-name="Trazado 207122" d="M5.086-1.992l3.25-9.383H9.977L5.758,0H4.43L.219-11.375H1.852ZM14.445.156a3.693,3.693,0,0,1-2.8-1.129,4.19,4.19,0,0,1-1.078-3.02v-.266a5.073,5.073,0,0,1,.48-2.246,3.748,3.748,0,0,1,1.344-1.547,3.378,3.378,0,0,1,1.871-.559,3.166,3.166,0,0,1,2.563,1.086,4.7,4.7,0,0,1,.914,3.109v.6H12.016a3,3,0,0,0,.73,2.02,2.3,2.3,0,0,0,1.777.77,2.517,2.517,0,0,0,1.3-.312,3.259,3.259,0,0,0,.93-.828l.883.688A3.55,3.55,0,0,1,14.445.156Zm-.18-7.578a1.928,1.928,0,0,0-1.469.637A3.1,3.1,0,0,0,12.062-5H16.3v-.109A2.753,2.753,0,0,0,15.7-6.816,1.815,1.815,0,0,0,14.266-7.422Zm6.516-1.031.047,1.063a3.08,3.08,0,0,1,2.531-1.219q2.68,0,2.7,3.023V0H24.617V-5.594A1.946,1.946,0,0,0,24.2-6.945a1.675,1.675,0,0,0-1.277-.437,2.086,2.086,0,0,0-1.234.375,2.546,2.546,0,0,0-.828.984V0H19.414V-8.453ZM30.2-10.5v2.047h1.578v1.117H30.2v5.249a1.173,1.173,0,0,0,.211.763.888.888,0,0,0,.719.254,3.5,3.5,0,0,0,.688-.094V0a4.215,4.215,0,0,1-1.109.155A1.8,1.8,0,0,1,29.25-.43a2.517,2.517,0,0,1-.492-1.664V-7.336H27.219V-8.453h1.539V-10.5ZM38.687,0a3.036,3.036,0,0,1-.2-.891A3.225,3.225,0,0,1,36.078.156a2.984,2.984,0,0,1-2.051-.707,2.287,2.287,0,0,1-.8-1.793,2.39,2.39,0,0,1,1-2.051,4.733,4.733,0,0,1,2.824-.73h1.406v-.664A1.623,1.623,0,0,0,38.008-7a1.821,1.821,0,0,0-1.336-.449,2.107,2.107,0,0,0-1.3.391,1.151,1.151,0,0,0-.523.945H33.4a2,2,0,0,1,.449-1.223,3.066,3.066,0,0,1,1.219-.934,4.1,4.1,0,0,1,1.691-.344,3.342,3.342,0,0,1,2.289.73,2.635,2.635,0,0,1,.859,2.012v3.891a4.757,4.757,0,0,0,.3,1.852V0Zm-2.4-1.1a2.54,2.54,0,0,0,1.289-.352,2.127,2.127,0,0,0,.883-.914V-4.1H37.328q-2.656,0-2.656,1.555a1.316,1.316,0,0,0,.453,1.063A1.742,1.742,0,0,0,36.289-1.1Zm10.8-1.141a1.064,1.064,0,0,0-.441-.91,4.249,4.249,0,0,0-1.539-.559,7.277,7.277,0,0,1-1.742-.562,2.479,2.479,0,0,1-.953-.781,1.869,1.869,0,0,1-.309-1.078,2.193,2.193,0,0,1,.879-1.758,3.432,3.432,0,0,1,2.246-.719,3.532,3.532,0,0,1,2.332.742,2.357,2.357,0,0,1,.895,1.9H47.008a1.3,1.3,0,0,0-.5-1.023,1.888,1.888,0,0,0-1.27-.43A1.976,1.976,0,0,0,44-7.078a1.082,1.082,0,0,0-.445.9.877.877,0,0,0,.414.789,5.1,5.1,0,0,0,1.5.508,7.8,7.8,0,0,1,1.754.578,2.558,2.558,0,0,1,1,.809,1.988,1.988,0,0,1,.324,1.152,2.163,2.163,0,0,1-.906,1.816,3.8,3.8,0,0,1-2.352.684,4.257,4.257,0,0,1-1.8-.359,2.922,2.922,0,0,1-1.223-1A2.42,2.42,0,0,1,41.82-2.6h1.445a1.5,1.5,0,0,0,.582,1.152,2.258,2.258,0,0,0,1.434.426A2.331,2.331,0,0,0,46.6-1.355,1.02,1.02,0,0,0,47.094-2.242Z" transform="translate(760.002 4102.084)" fill="#12263f"/>
    <path id="Trazado_207120" data-name="Trazado 207120" d="M2.93,0H1.43V-11.375h1.5ZM5.672,0V-11.375H8.883a5.169,5.169,0,0,1,2.625.656A4.438,4.438,0,0,1,13.27-8.852,6.078,6.078,0,0,1,13.9-6.07v.727a6.1,6.1,0,0,1-.621,2.82A4.369,4.369,0,0,1,11.5-.664,5.5,5.5,0,0,1,8.82,0Zm1.5-10.148v8.922H8.75a3.434,3.434,0,0,0,2.7-1.079,4.458,4.458,0,0,0,.965-3.073v-.665a4.529,4.529,0,0,0-.91-3.014,3.239,3.239,0,0,0-2.582-1.091ZM24.531-3.609A4.185,4.185,0,0,1,23.2-.824a4.365,4.365,0,0,1-2.98.98,4.008,4.008,0,0,1-3.23-1.445,5.815,5.815,0,0,1-1.215-3.867V-6.25a6.481,6.481,0,0,1,.566-2.789,4.231,4.231,0,0,1,1.605-1.848,4.47,4.47,0,0,1,2.406-.645,4.11,4.11,0,0,1,2.906,1.012,4.235,4.235,0,0,1,1.273,2.8H23.023a3.268,3.268,0,0,0-.848-1.975,2.565,2.565,0,0,0-1.824-.611A2.684,2.684,0,0,0,18.1-9.241a4.882,4.882,0,0,0-.816,3.026v1.1a5.018,5.018,0,0,0,.773,2.948A2.5,2.5,0,0,0,20.219-1.07a2.886,2.886,0,0,0,1.918-.566,3.143,3.143,0,0,0,.887-1.973ZM27.922,0H26.477V-12h1.445ZM31.8,0H30.359V-8.453H31.8ZM30.242-10.7a.863.863,0,0,1,.215-.594.807.807,0,0,1,.637-.242.819.819,0,0,1,.641.242.854.854,0,0,1,.219.594.826.826,0,0,1-.219.586.834.834,0,0,1-.641.234.821.821,0,0,1-.637-.234A.834.834,0,0,1,30.242-10.7ZM37.625.156a3.693,3.693,0,0,1-2.8-1.129,4.19,4.19,0,0,1-1.078-3.02v-.266A5.073,5.073,0,0,1,34.23-6.5a3.748,3.748,0,0,1,1.344-1.547,3.378,3.378,0,0,1,1.871-.559,3.166,3.166,0,0,1,2.563,1.086,4.7,4.7,0,0,1,.914,3.109v.6H35.2a3,3,0,0,0,.73,2.02,2.3,2.3,0,0,0,1.777.77A2.517,2.517,0,0,0,39-1.336a3.259,3.259,0,0,0,.93-.828l.883.688A3.55,3.55,0,0,1,37.625.156Zm-.18-7.578a1.928,1.928,0,0,0-1.469.637A3.1,3.1,0,0,0,35.242-5h4.234v-.109a2.753,2.753,0,0,0-.594-1.707A1.815,1.815,0,0,0,37.445-7.422Zm6.516-1.031.047,1.063a3.08,3.08,0,0,1,2.531-1.219q2.68,0,2.7,3.023V0H47.8V-5.594a1.946,1.946,0,0,0-.418-1.352A1.675,1.675,0,0,0,46.1-7.383a2.086,2.086,0,0,0-1.234.375,2.546,2.546,0,0,0-.828.984V0H42.594V-8.453ZM53.383-10.5v2.047h1.578v1.117H53.383v5.249a1.173,1.173,0,0,0,.211.763.888.888,0,0,0,.719.254A3.5,3.5,0,0,0,55-1.164V0a4.215,4.215,0,0,1-1.109.155A1.8,1.8,0,0,1,52.43-.43a2.517,2.517,0,0,1-.492-1.664V-7.336H50.4V-8.453h1.539V-10.5ZM60.156.156a3.693,3.693,0,0,1-2.8-1.129,4.19,4.19,0,0,1-1.078-3.02v-.266a5.073,5.073,0,0,1,.48-2.246,3.748,3.748,0,0,1,1.344-1.547,3.378,3.378,0,0,1,1.871-.559,3.166,3.166,0,0,1,2.563,1.086,4.7,4.7,0,0,1,.914,3.109v.6H57.727a3,3,0,0,0,.73,2.02,2.3,2.3,0,0,0,1.777.77,2.517,2.517,0,0,0,1.3-.312,3.259,3.259,0,0,0,.93-.828l.883.688A3.55,3.55,0,0,1,60.156.156Zm-.18-7.578a1.928,1.928,0,0,0-1.469.637A3.1,3.1,0,0,0,57.773-5h4.234v-.109a2.753,2.753,0,0,0-.594-1.707A1.815,1.815,0,0,0,59.977-7.422Z" transform="translate(760.002 4126.084)" fill="#12263f"/>
    <path id="Trazado_207118" data-name="Trazado 207118" d="M2.93,0H1.43V-11.375h1.5ZM5.672,0V-11.375H8.883a5.169,5.169,0,0,1,2.625.656A4.438,4.438,0,0,1,13.27-8.852,6.078,6.078,0,0,1,13.9-6.07v.727a6.1,6.1,0,0,1-.621,2.82A4.369,4.369,0,0,1,11.5-.664,5.5,5.5,0,0,1,8.82,0Zm1.5-10.148v8.922H8.75a3.434,3.434,0,0,0,2.7-1.079,4.458,4.458,0,0,0,.965-3.073v-.665a4.529,4.529,0,0,0-.91-3.014,3.239,3.239,0,0,0-2.582-1.091Zm10.492,5.7V0h-1.5V-11.375h4.2a4.215,4.215,0,0,1,2.926.953A3.231,3.231,0,0,1,24.344-7.9a3.189,3.189,0,0,1-1.035,2.551,4.4,4.4,0,0,1-2.965.895Zm0-1.227h2.7A2.7,2.7,0,0,0,22.2-6.247a2.075,2.075,0,0,0,.641-1.64A2.143,2.143,0,0,0,22.2-9.515a2.525,2.525,0,0,0-1.758-.634H17.664ZM30.117-7.156a4.331,4.331,0,0,0-.711-.055A1.9,1.9,0,0,0,27.477-6V0H26.031V-8.453h1.406l.023.977a2.251,2.251,0,0,1,2.016-1.133,1.477,1.477,0,0,1,.641.109ZM30.746-4.3a4.993,4.993,0,0,1,.488-2.234A3.643,3.643,0,0,1,32.594-8.07a3.7,3.7,0,0,1,1.988-.539,3.565,3.565,0,0,1,2.793,1.2,4.6,4.6,0,0,1,1.066,3.18v.1a5.036,5.036,0,0,1-.473,2.215A3.589,3.589,0,0,1,36.617-.391,3.743,3.743,0,0,1,34.6.156a3.556,3.556,0,0,1-2.785-1.2A4.575,4.575,0,0,1,30.746-4.2Zm1.453.172a3.616,3.616,0,0,0,.652,2.258,2.088,2.088,0,0,0,1.746.852,2.075,2.075,0,0,0,1.75-.863A3.955,3.955,0,0,0,37-4.3a3.61,3.61,0,0,0-.66-2.254,2.1,2.1,0,0,0-1.754-.863,2.075,2.075,0,0,0-1.727.852A3.925,3.925,0,0,0,32.2-4.133ZM39.9-4.3a4.952,4.952,0,0,1,.922-3.129,2.915,2.915,0,0,1,2.414-1.184A2.932,2.932,0,0,1,45.59-7.594V-12h1.445V0H45.707l-.07-.906A2.943,2.943,0,0,1,43.223.156a2.887,2.887,0,0,1-2.395-1.2A5.008,5.008,0,0,1,39.9-4.187Zm1.445.164a3.749,3.749,0,0,0,.594,2.25,1.92,1.92,0,0,0,1.641.813A2.108,2.108,0,0,0,45.59-2.3V-6.187a2.125,2.125,0,0,0-1.992-1.2,1.929,1.929,0,0,0-1.656.82A4.128,4.128,0,0,0,41.348-4.133ZM54.5-.836A3.07,3.07,0,0,1,52.02.156a2.628,2.628,0,0,1-2.059-.785,3.4,3.4,0,0,1-.715-2.324v-5.5h1.445v5.461q0,1.922,1.563,1.922a2.163,2.163,0,0,0,2.2-1.234V-8.453H55.9V0H54.528Zm6.992-.187a2.082,2.082,0,0,0,1.352-.469,1.649,1.649,0,0,0,.641-1.172h1.367a2.621,2.621,0,0,1-.5,1.383,3.293,3.293,0,0,1-1.23,1.047,3.55,3.55,0,0,1-1.629.391A3.482,3.482,0,0,1,58.742-1a4.59,4.59,0,0,1-1.02-3.152v-.242a5.089,5.089,0,0,1,.453-2.2,3.451,3.451,0,0,1,1.3-1.492,3.7,3.7,0,0,1,2-.531,3.39,3.39,0,0,1,2.363.852,3.043,3.043,0,0,1,1,2.211H63.481a1.992,1.992,0,0,0-.621-1.348,1.932,1.932,0,0,0-1.379-.527,2.023,2.023,0,0,0-1.707.793,3.724,3.724,0,0,0-.605,2.293v.273a3.65,3.65,0,0,0,.6,2.25A2.033,2.033,0,0,0,61.488-1.023ZM68.434-10.5v2.047h1.578v1.117H68.434v5.249a1.173,1.173,0,0,0,.211.763.888.888,0,0,0,.719.254,3.5,3.5,0,0,0,.688-.094V0a4.215,4.215,0,0,1-1.109.155A1.8,1.8,0,0,1,67.481-.43a2.517,2.517,0,0,1-.492-1.664V-7.336H65.449V-8.453h1.539V-10.5Zm2.6,6.2a4.993,4.993,0,0,1,.488-2.234A3.643,3.643,0,0,1,72.88-8.07a3.7,3.7,0,0,1,1.988-.539,3.565,3.565,0,0,1,2.793,1.2,4.6,4.6,0,0,1,1.066,3.18v.1a5.036,5.036,0,0,1-.473,2.215A3.589,3.589,0,0,1,76.9-.391a3.743,3.743,0,0,1-2.02.547,3.556,3.556,0,0,1-2.785-1.2A4.575,4.575,0,0,1,71.032-4.2Zm1.453.172a3.616,3.616,0,0,0,.652,2.258,2.088,2.088,0,0,0,1.746.852,2.075,2.075,0,0,0,1.75-.863A3.955,3.955,0,0,0,77.282-4.3a3.61,3.61,0,0,0-.66-2.254,2.1,2.1,0,0,0-1.754-.863,2.075,2.075,0,0,0-1.727.852A3.925,3.925,0,0,0,72.485-4.133Z" transform="translate(760.002 4150.084)" fill="#12263f"/>
    <path id="Trazado_207117" data-name="Trazado 207117" d="M2.93,0H1.43V-11.375h1.5ZM5.672,0V-11.375H8.883a5.169,5.169,0,0,1,2.625.656A4.438,4.438,0,0,1,13.27-8.852,6.078,6.078,0,0,1,13.9-6.07v.727a6.1,6.1,0,0,1-.621,2.82A4.369,4.369,0,0,1,11.5-.664,5.5,5.5,0,0,1,8.82,0Zm1.5-10.148v8.922H8.75a3.434,3.434,0,0,0,2.7-1.079,4.458,4.458,0,0,0,.965-3.073v-.665a4.529,4.529,0,0,0-.91-3.014,3.239,3.239,0,0,0-2.582-1.091ZM22.438-5.023H17.664V0h-1.5V-11.375h7.047v1.227H17.664v3.9h4.773ZM28.129.156a3.693,3.693,0,0,1-2.8-1.129,4.19,4.19,0,0,1-1.078-3.02v-.266a5.073,5.073,0,0,1,.48-2.246,3.748,3.748,0,0,1,1.344-1.547,3.378,3.378,0,0,1,1.871-.559,3.166,3.166,0,0,1,2.563,1.086,4.7,4.7,0,0,1,.914,3.109v.6H25.7a3,3,0,0,0,.73,2.02,2.3,2.3,0,0,0,1.777.77,2.517,2.517,0,0,0,1.3-.312,3.259,3.259,0,0,0,.93-.828l.883.688A3.55,3.55,0,0,1,28.129.156Zm-.18-7.578a1.928,1.928,0,0,0-1.469.637A3.1,3.1,0,0,0,25.746-5h4.234v-.109a2.753,2.753,0,0,0-.594-1.707A1.815,1.815,0,0,0,27.949-7.422Zm8.539,6.4a2.082,2.082,0,0,0,1.352-.469,1.649,1.649,0,0,0,.641-1.172h1.367a2.621,2.621,0,0,1-.5,1.383,3.293,3.293,0,0,1-1.23,1.047,3.55,3.55,0,0,1-1.629.391A3.482,3.482,0,0,1,33.742-1a4.59,4.59,0,0,1-1.02-3.152v-.242a5.089,5.089,0,0,1,.453-2.2,3.451,3.451,0,0,1,1.3-1.492,3.7,3.7,0,0,1,2-.531,3.39,3.39,0,0,1,2.363.852,3.043,3.043,0,0,1,1,2.211H38.481a1.992,1.992,0,0,0-.621-1.348,1.932,1.932,0,0,0-1.379-.527,2.023,2.023,0,0,0-1.707.793,3.724,3.724,0,0,0-.605,2.293v.273a3.65,3.65,0,0,0,.6,2.25A2.033,2.033,0,0,0,36.488-1.023Zm6.43-6.406a3.073,3.073,0,0,1,2.5-1.18q2.68,0,2.7,3.023V0H46.676V-5.594a1.946,1.946,0,0,0-.418-1.352,1.675,1.675,0,0,0-1.277-.437,2.086,2.086,0,0,0-1.234.375,2.546,2.546,0,0,0-.828.984V0H41.473V-12h1.445ZM55.5,0a3.036,3.036,0,0,1-.2-.891A3.225,3.225,0,0,1,52.895.156a2.984,2.984,0,0,1-2.051-.707,2.287,2.287,0,0,1-.8-1.793,2.39,2.39,0,0,1,1-2.051,4.733,4.733,0,0,1,2.824-.73h1.406v-.664A1.623,1.623,0,0,0,54.824-7a1.821,1.821,0,0,0-1.336-.449,2.107,2.107,0,0,0-1.3.391,1.151,1.151,0,0,0-.523.945H50.215a2,2,0,0,1,.449-1.223,3.066,3.066,0,0,1,1.219-.934,4.1,4.1,0,0,1,1.691-.344,3.342,3.342,0,0,1,2.289.73,2.635,2.635,0,0,1,.859,2.012v3.891a4.757,4.757,0,0,0,.3,1.852V0Zm-2.4-1.1a2.54,2.54,0,0,0,1.289-.352,2.127,2.127,0,0,0,.883-.914V-4.1H54.145q-2.656,0-2.656,1.555a1.316,1.316,0,0,0,.453,1.063A1.742,1.742,0,0,0,53.106-1.1Z" transform="translate(760.002 4174.084)" fill="#12263f"/>
    <path id="Trazado_207115" data-name="Trazado 207115" d="M6.836-4.508,2.3.914H9.336V2.1H.539V.984L5.3-4.609.539-10.25v-1.125h8.2v1.188H2.289L6.836-4.7Zm16.18.9A4.185,4.185,0,0,1,21.684-.824a4.365,4.365,0,0,1-2.98.98,4.008,4.008,0,0,1-3.23-1.445,5.815,5.815,0,0,1-1.215-3.867V-6.25a6.481,6.481,0,0,1,.566-2.789,4.231,4.231,0,0,1,1.605-1.848,4.47,4.47,0,0,1,2.406-.645,4.11,4.11,0,0,1,2.906,1.012,4.235,4.235,0,0,1,1.273,2.8H21.508a3.268,3.268,0,0,0-.848-1.975,2.565,2.565,0,0,0-1.824-.611,2.684,2.684,0,0,0-2.254,1.063,4.882,4.882,0,0,0-.816,3.026v1.1a5.018,5.018,0,0,0,.773,2.948A2.5,2.5,0,0,0,18.7-1.07a2.886,2.886,0,0,0,1.918-.566,3.143,3.143,0,0,0,.887-1.973ZM30.055,0a3.036,3.036,0,0,1-.2-.891A3.225,3.225,0,0,1,27.445.156a2.984,2.984,0,0,1-2.051-.707,2.287,2.287,0,0,1-.8-1.793,2.39,2.39,0,0,1,1-2.051,4.733,4.733,0,0,1,2.824-.73h1.406v-.664A1.623,1.623,0,0,0,29.375-7a1.821,1.821,0,0,0-1.336-.449,2.108,2.108,0,0,0-1.3.391,1.151,1.151,0,0,0-.523.945H24.766a2,2,0,0,1,.449-1.223,3.066,3.066,0,0,1,1.219-.934,4.1,4.1,0,0,1,1.691-.344,3.342,3.342,0,0,1,2.289.73,2.635,2.635,0,0,1,.859,2.012v3.891a4.757,4.757,0,0,0,.3,1.852V0Zm-2.4-1.1a2.54,2.54,0,0,0,1.289-.352,2.127,2.127,0,0,0,.883-.914V-4.1H28.7q-2.656,0-2.656,1.555a1.316,1.316,0,0,0,.453,1.063A1.742,1.742,0,0,0,27.656-1.1Zm7.25-7.352.047,1.063a3.08,3.08,0,0,1,2.531-1.219q2.68,0,2.7,3.023V0H38.742V-5.594a1.946,1.946,0,0,0-.418-1.352,1.675,1.675,0,0,0-1.277-.437,2.086,2.086,0,0,0-1.234.375,2.546,2.546,0,0,0-.828.984V0H33.539V-8.453ZM44.328-10.5v2.047h1.578v1.117H44.328v5.249a1.173,1.173,0,0,0,.211.763.888.888,0,0,0,.719.254,3.5,3.5,0,0,0,.688-.094V0a4.215,4.215,0,0,1-1.109.155A1.8,1.8,0,0,1,43.375-.43a2.517,2.517,0,0,1-.492-1.664V-7.336H41.344V-8.453h1.539V-10.5ZM49.164,0H47.719V-8.453h1.445ZM47.6-10.7a.863.863,0,0,1,.215-.594.807.807,0,0,1,.637-.242.819.819,0,0,1,.641.242.854.854,0,0,1,.219.594.826.826,0,0,1-.219.586.834.834,0,0,1-.641.234.821.821,0,0,1-.637-.234A.834.834,0,0,1,47.6-10.7Zm3.523,6.4a4.952,4.952,0,0,1,.922-3.129,2.915,2.915,0,0,1,2.414-1.184,2.932,2.932,0,0,1,2.352,1.016V-12h1.445V0H56.93l-.07-.906A2.943,2.943,0,0,1,54.445.156a2.887,2.887,0,0,1-2.395-1.2,5.008,5.008,0,0,1-.926-3.141Zm1.445.164a3.749,3.749,0,0,0,.594,2.25A1.92,1.92,0,0,0,54.8-1.07,2.108,2.108,0,0,0,56.813-2.3V-6.187a2.125,2.125,0,0,0-1.992-1.2,1.929,1.929,0,0,0-1.656.82A4.128,4.128,0,0,0,52.57-4.133ZM65.719,0a3.036,3.036,0,0,1-.2-.891A3.225,3.225,0,0,1,63.109.156a2.984,2.984,0,0,1-2.051-.707,2.287,2.287,0,0,1-.8-1.793,2.39,2.39,0,0,1,1-2.051,4.733,4.733,0,0,1,2.824-.73h1.406v-.664A1.623,1.623,0,0,0,65.039-7,1.821,1.821,0,0,0,63.7-7.445a2.107,2.107,0,0,0-1.3.391,1.151,1.151,0,0,0-.523.945H60.43a2,2,0,0,1,.449-1.223A3.066,3.066,0,0,1,62.1-8.266a4.1,4.1,0,0,1,1.691-.344,3.342,3.342,0,0,1,2.289.73,2.635,2.635,0,0,1,.859,2.012v3.891a4.757,4.757,0,0,0,.3,1.852V0Zm-2.4-1.1a2.54,2.54,0,0,0,1.289-.352,2.127,2.127,0,0,0,.883-.914V-4.1H64.359Q61.7-4.1,61.7-2.547a1.316,1.316,0,0,0,.453,1.063A1.742,1.742,0,0,0,63.32-1.1Zm5.531-3.2a4.952,4.952,0,0,1,.922-3.129,2.915,2.915,0,0,1,2.414-1.184,2.932,2.932,0,0,1,2.352,1.016V-12h1.445V0H74.656l-.07-.906A2.943,2.943,0,0,1,72.172.156a2.887,2.887,0,0,1-2.395-1.2,5.008,5.008,0,0,1-.926-3.141Zm1.445.164a3.749,3.749,0,0,0,.594,2.25,1.92,1.92,0,0,0,1.641.813A2.109,2.109,0,0,0,74.539-2.3V-6.187a2.125,2.125,0,0,0-1.992-1.2,1.929,1.929,0,0,0-1.656.82A4.128,4.128,0,0,0,70.3-4.133Z" transform="translate(760.002 4198.084)" fill="#12263f"/>
    <path id="Trazado_207114" data-name="Trazado 207114" d="M6.836-4.508,2.3.914H9.336V2.1H.539V.984L5.3-4.609.539-10.25v-1.125h8.2v1.188H2.289L6.836-4.7Zm9.75-6.867L20.3-2.094l3.719-9.281h1.945V0h-1.5V-4.43l.141-4.781L20.875,0H19.727L16-9.187l.148,4.758V0h-1.5V-11.375ZM28.008-4.3A4.993,4.993,0,0,1,28.5-6.539,3.643,3.643,0,0,1,29.855-8.07a3.7,3.7,0,0,1,1.988-.539,3.565,3.565,0,0,1,2.793,1.2A4.6,4.6,0,0,1,35.7-4.234v.1a5.036,5.036,0,0,1-.473,2.215A3.589,3.589,0,0,1,33.879-.391a3.743,3.743,0,0,1-2.02.547,3.556,3.556,0,0,1-2.785-1.2A4.575,4.575,0,0,1,28.008-4.2Zm1.453.172a3.616,3.616,0,0,0,.652,2.258,2.088,2.088,0,0,0,1.746.852,2.075,2.075,0,0,0,1.75-.863A3.955,3.955,0,0,0,34.258-4.3a3.61,3.61,0,0,0-.66-2.254,2.1,2.1,0,0,0-1.754-.863,2.075,2.075,0,0,0-1.727.852A3.925,3.925,0,0,0,29.461-4.133Zm9.422-4.32.047,1.063a3.08,3.08,0,0,1,2.531-1.219q2.68,0,2.7,3.023V0H42.719V-5.594A1.946,1.946,0,0,0,42.3-6.945a1.675,1.675,0,0,0-1.277-.437,2.086,2.086,0,0,0-1.234.375,2.546,2.546,0,0,0-.828.984V0H37.516V-8.453ZM48.3-10.5v2.047h1.578v1.117H48.3v5.249a1.173,1.173,0,0,0,.211.763.888.888,0,0,0,.719.254,3.5,3.5,0,0,0,.688-.094V0a4.215,4.215,0,0,1-1.109.155A1.8,1.8,0,0,1,47.352-.43a2.517,2.517,0,0,1-.492-1.664V-7.336H45.32V-8.453h1.539V-10.5Zm2.583,6.2a4.993,4.993,0,0,1,.488-2.234A3.643,3.643,0,0,1,52.735-8.07a3.7,3.7,0,0,1,1.988-.539,3.565,3.565,0,0,1,2.793,1.2,4.6,4.6,0,0,1,1.066,3.18v.1a5.036,5.036,0,0,1-.473,2.215A3.589,3.589,0,0,1,56.758-.391a3.743,3.743,0,0,1-2.02.547,3.556,3.556,0,0,1-2.785-1.2A4.575,4.575,0,0,1,50.887-4.2Zm1.453.172a3.616,3.616,0,0,0,.652,2.258,2.088,2.088,0,0,0,1.746.852,2.075,2.075,0,0,0,1.75-.863A3.955,3.955,0,0,0,57.137-4.3a3.61,3.61,0,0,0-.66-2.254,2.1,2.1,0,0,0-1.754-.863A2.075,2.075,0,0,0,53-6.57,3.925,3.925,0,0,0,52.34-4.133Zm16.141-6.016H64.825V0H63.333V-10.148H59.684v-1.227h8.8ZM68.034-4.3a4.993,4.993,0,0,1,.488-2.234A3.643,3.643,0,0,1,69.881-8.07a3.7,3.7,0,0,1,1.988-.539,3.565,3.565,0,0,1,2.793,1.2,4.6,4.6,0,0,1,1.066,3.18v.1a5.036,5.036,0,0,1-.473,2.215A3.589,3.589,0,0,1,73.9-.391a3.743,3.743,0,0,1-2.02.547,3.556,3.556,0,0,1-2.785-1.2A4.575,4.575,0,0,1,68.034-4.2Zm1.453.172a3.616,3.616,0,0,0,.652,2.258,2.088,2.088,0,0,0,1.746.852,2.075,2.075,0,0,0,1.75-.863A3.955,3.955,0,0,0,74.284-4.3a3.61,3.61,0,0,0-.66-2.254,2.1,2.1,0,0,0-1.754-.863,2.075,2.075,0,0,0-1.727.852A3.925,3.925,0,0,0,69.487-4.133ZM79.5-10.5v2.047h1.578v1.117H79.5v5.249a1.173,1.173,0,0,0,.211.763.888.888,0,0,0,.719.254,3.5,3.5,0,0,0,.688-.094V0A4.215,4.215,0,0,1,80.01.156,1.8,1.8,0,0,1,78.549-.43a2.517,2.517,0,0,1-.492-1.664V-7.336H76.518V-8.453h1.539V-10.5ZM87.987,0a3.036,3.036,0,0,1-.2-.891A3.225,3.225,0,0,1,85.377.156a2.984,2.984,0,0,1-2.051-.707,2.288,2.288,0,0,1-.8-1.793,2.39,2.39,0,0,1,1-2.051,4.733,4.733,0,0,1,2.824-.73H87.76v-.664A1.623,1.623,0,0,0,87.307-7a1.821,1.821,0,0,0-1.336-.449,2.108,2.108,0,0,0-1.3.391,1.151,1.151,0,0,0-.523.945H82.7a2,2,0,0,1,.449-1.223,3.066,3.066,0,0,1,1.219-.934,4.1,4.1,0,0,1,1.691-.344,3.342,3.342,0,0,1,2.289.73,2.635,2.635,0,0,1,.859,2.012v3.891a4.757,4.757,0,0,0,.3,1.852V0Zm-2.4-1.1a2.54,2.54,0,0,0,1.289-.352,2.127,2.127,0,0,0,.883-.914V-4.1H86.627q-2.656,0-2.656,1.555a1.316,1.316,0,0,0,.453,1.063A1.742,1.742,0,0,0,85.588-1.1ZM93.041,0H91.6V-12h1.445Z" transform="translate(760.002 4222.084)" fill="#12263f"/>
    <g id="Grupo_150102" data-name="Grupo 150102" transform="translate(472 3811.5)">
      <g id="Grupo_150101" data-name="Grupo 150101" clip-path="url(#clip-path)">
        <path id="Trazado_206800" data-name="Trazado 206800" d="M277.24,241.6a1.034,1.034,0,0,0-.965-1.1l-9.388.1a1.034,1.034,0,0,1-.965-1.1v-.384a1.034,1.034,0,0,0-.965-1.1l-4.86.053a1.062,1.062,0,0,0-.965,1.125v5.137H277.24Z" fill="#4d4d4d"/>
        <path id="Trazado_206801" data-name="Trazado 206801" d="M259.133,244.326V253.9a1.034,1.034,0,0,0,.965,1.1l16.177-.177a1.06,1.06,0,0,0,.965-1.125v-9.377Z" fill="gray"/>
        <path id="Trazado_206802" data-name="Trazado 206802" d="M633.482,372.648H518.162a9.035,9.035,0,0,1-9.035-9.035V231.25a9.035,9.035,0,0,1,9.035-9.035h115.32a9.036,9.036,0,0,1,9.035,9.035V363.613a9.035,9.035,0,0,1-9.035,9.035" fill="#f2f2f2"/>
        <path id="Trazado_206803" data-name="Trazado 206803" d="M642.517,254.047H509.128V228.373a6.158,6.158,0,0,1,6.157-6.158H636.359a6.158,6.158,0,0,1,6.158,6.158Z" fill="#ccc"/>
      </g>
    </g>
    <path id="Trazado_207125" data-name="Trazado 207125" d="M7.859-4.648h-4.5V0H1.016V-11.375H8.422v1.9H3.359v2.938h4.5Zm5.5,4.8A4.15,4.15,0,0,1,10.336-.984,4.054,4.054,0,0,1,9.168-4.023v-.219A5.106,5.106,0,0,1,9.66-6.52a3.612,3.612,0,0,1,1.395-1.547,3.914,3.914,0,0,1,2.059-.543,3.508,3.508,0,0,1,2.73,1.094,4.444,4.444,0,0,1,1,3.1v.922H11.457a2.1,2.1,0,0,0,.66,1.328,2,2,0,0,0,1.395.5,2.437,2.437,0,0,0,2.039-.945L16.66-1.367A3.389,3.389,0,0,1,15.285-.246,4.511,4.511,0,0,1,13.363.156Zm-.258-6.945a1.411,1.411,0,0,0-1.09.455,2.357,2.357,0,0,0-.535,1.3h3.141v-.181a1.681,1.681,0,0,0-.406-1.165A1.456,1.456,0,0,0,13.106-6.789Zm8.531,5.125a1.481,1.481,0,0,0,1.016-.344,1.2,1.2,0,0,0,.406-.914h2.117a2.9,2.9,0,0,1-.469,1.574A3.093,3.093,0,0,1,23.445-.238a3.949,3.949,0,0,1-1.77.395A3.67,3.67,0,0,1,18.817-1,4.56,4.56,0,0,1,17.77-4.18v-.148a4.508,4.508,0,0,1,1.039-3.117A3.627,3.627,0,0,1,21.66-8.609a3.555,3.555,0,0,1,2.543.9,3.2,3.2,0,0,1,.973,2.4H23.059a1.551,1.551,0,0,0-.406-1.072,1.354,1.354,0,0,0-1.031-.412,1.36,1.36,0,0,0-1.191.575,3.333,3.333,0,0,0-.4,1.866v.235a3.375,3.375,0,0,0,.4,1.878A1.377,1.377,0,0,0,21.637-1.664Zm7.031-5.867a2.818,2.818,0,0,1,2.258-1.078q2.75,0,2.789,3.2V0H31.457V-5.352a1.57,1.57,0,0,0-.312-1.074,1.34,1.34,0,0,0-1.039-.348,1.537,1.537,0,0,0-1.437.766V0H26.41V-12h2.258ZM40.317,0a2.507,2.507,0,0,1-.227-.758,2.732,2.732,0,0,1-2.133.914A3,3,0,0,1,35.9-.562a2.312,2.312,0,0,1-.816-1.812,2.389,2.389,0,0,1,1-2.062,4.915,4.915,0,0,1,2.879-.727H40v-.484a1.393,1.393,0,0,0-.3-.937,1.183,1.183,0,0,0-.949-.352,1.345,1.345,0,0,0-.895.273.929.929,0,0,0-.324.75H35.27a2.268,2.268,0,0,1,.453-1.359A3,3,0,0,1,37-8.254a4.669,4.669,0,0,1,1.859-.355,3.689,3.689,0,0,1,2.48.785,2.747,2.747,0,0,1,.918,2.207v3.664A4.041,4.041,0,0,0,42.6-.133V0ZM38.449-1.57a1.945,1.945,0,0,0,.922-.223,1.462,1.462,0,0,0,.625-.6V-3.844h-.844q-1.7,0-1.8,1.172l-.008.133a.9.9,0,0,0,.3.7A1.153,1.153,0,0,0,38.449-1.57Z" transform="translate(1017.443 4056.35)" fill="#12263f"/>
    <path id="Trazado_207123" data-name="Trazado 207123" d="M2.93,0H1.43V-11.375h1.5ZM5.672,0V-11.375H8.883a5.169,5.169,0,0,1,2.625.656A4.438,4.438,0,0,1,13.27-8.852,6.078,6.078,0,0,1,13.9-6.07v.727a6.1,6.1,0,0,1-.621,2.82A4.369,4.369,0,0,1,11.5-.664,5.5,5.5,0,0,1,8.82,0Zm1.5-10.148v8.922H8.75a3.434,3.434,0,0,0,2.7-1.079,4.458,4.458,0,0,0,.965-3.073v-.665a4.529,4.529,0,0,0-.91-3.014,3.239,3.239,0,0,0-2.582-1.091ZM22.438-5.023H17.664V0h-1.5V-11.375h7.047v1.227H17.664v3.9h4.773ZM28.129.156a3.693,3.693,0,0,1-2.8-1.129,4.19,4.19,0,0,1-1.078-3.02v-.266a5.073,5.073,0,0,1,.48-2.246,3.748,3.748,0,0,1,1.344-1.547,3.378,3.378,0,0,1,1.871-.559,3.166,3.166,0,0,1,2.563,1.086,4.7,4.7,0,0,1,.914,3.109v.6H25.7a3,3,0,0,0,.73,2.02,2.3,2.3,0,0,0,1.777.77,2.517,2.517,0,0,0,1.3-.312,3.259,3.259,0,0,0,.93-.828l.883.688A3.55,3.55,0,0,1,28.129.156Zm-.18-7.578a1.928,1.928,0,0,0-1.469.637A3.1,3.1,0,0,0,25.746-5h4.234v-.109a2.753,2.753,0,0,0-.594-1.707A1.815,1.815,0,0,0,27.949-7.422Zm8.539,6.4a2.082,2.082,0,0,0,1.352-.469,1.649,1.649,0,0,0,.641-1.172h1.367a2.621,2.621,0,0,1-.5,1.383,3.293,3.293,0,0,1-1.23,1.047,3.55,3.55,0,0,1-1.629.391A3.482,3.482,0,0,1,33.742-1a4.59,4.59,0,0,1-1.02-3.152v-.242a5.089,5.089,0,0,1,.453-2.2,3.451,3.451,0,0,1,1.3-1.492,3.7,3.7,0,0,1,2-.531,3.39,3.39,0,0,1,2.363.852,3.043,3.043,0,0,1,1,2.211H38.481a1.992,1.992,0,0,0-.621-1.348,1.932,1.932,0,0,0-1.379-.527,2.023,2.023,0,0,0-1.707.793,3.724,3.724,0,0,0-.605,2.293v.273a3.65,3.65,0,0,0,.6,2.25A2.033,2.033,0,0,0,36.488-1.023Zm6.43-6.406a3.073,3.073,0,0,1,2.5-1.18q2.68,0,2.7,3.023V0H46.676V-5.594a1.946,1.946,0,0,0-.418-1.352,1.675,1.675,0,0,0-1.277-.437,2.086,2.086,0,0,0-1.234.375,2.546,2.546,0,0,0-.828.984V0H41.473V-12h1.445ZM55.5,0a3.036,3.036,0,0,1-.2-.891A3.225,3.225,0,0,1,52.895.156a2.984,2.984,0,0,1-2.051-.707,2.287,2.287,0,0,1-.8-1.793,2.39,2.39,0,0,1,1-2.051,4.733,4.733,0,0,1,2.824-.73h1.406v-.664A1.623,1.623,0,0,0,54.824-7a1.821,1.821,0,0,0-1.336-.449,2.107,2.107,0,0,0-1.3.391,1.151,1.151,0,0,0-.523.945H50.215a2,2,0,0,1,.449-1.223,3.066,3.066,0,0,1,1.219-.934,4.1,4.1,0,0,1,1.691-.344,3.342,3.342,0,0,1,2.289.73,2.635,2.635,0,0,1,.859,2.012v3.891a4.757,4.757,0,0,0,.3,1.852V0Zm-2.4-1.1a2.54,2.54,0,0,0,1.289-.352,2.127,2.127,0,0,0,.883-.914V-4.1H54.145q-2.656,0-2.656,1.555a1.316,1.316,0,0,0,.453,1.063A1.742,1.742,0,0,0,53.106-1.1Z" transform="translate(1017.443 4092.974)" fill="#12263f"/>
    <path id="Trazado_207121" data-name="Trazado 207121" d="M7.6-2.977H2.836L1.766,0H.219L4.563-11.375H5.875L10.227,0H8.688ZM3.289-4.2H7.156L5.219-9.523ZM12.9-8.453l.047,1.063a3.08,3.08,0,0,1,2.531-1.219q2.68,0,2.7,3.023V0H16.734V-5.594a1.946,1.946,0,0,0-.418-1.352,1.675,1.675,0,0,0-1.277-.437,2.086,2.086,0,0,0-1.234.375,2.546,2.546,0,0,0-.828.984V0H11.531V-8.453Zm4.781-3.3a1.942,1.942,0,0,1-.48,1.367,1.561,1.561,0,0,1-1.2.523,1.76,1.76,0,0,1-.555-.078,2.993,2.993,0,0,1-.613-.32,2.656,2.656,0,0,0-.547-.293A1.338,1.338,0,0,0,13.9-10.6a.717.717,0,0,0-.547.246.892.892,0,0,0-.227.629l-.969-.055a2.039,2.039,0,0,1,.473-1.383,1.516,1.516,0,0,1,1.2-.547,1.457,1.457,0,0,1,.492.078,3.587,3.587,0,0,1,.594.3,3.494,3.494,0,0,0,.574.3,1.319,1.319,0,0,0,.441.07.7.7,0,0,0,.559-.266.932.932,0,0,0,.223-.617Zm2.3,7.445a4.993,4.993,0,0,1,.488-2.234A3.643,3.643,0,0,1,21.824-8.07a3.7,3.7,0,0,1,1.988-.539,3.565,3.565,0,0,1,2.793,1.2,4.6,4.6,0,0,1,1.066,3.18v.1A5.036,5.036,0,0,1,27.2-1.918,3.589,3.589,0,0,1,25.848-.391a3.743,3.743,0,0,1-2.02.547,3.556,3.556,0,0,1-2.785-1.2A4.575,4.575,0,0,1,19.977-4.2Zm1.453.172a3.616,3.616,0,0,0,.652,2.258,2.088,2.088,0,0,0,1.746.852,2.075,2.075,0,0,0,1.75-.863A3.955,3.955,0,0,0,26.227-4.3a3.61,3.61,0,0,0-.66-2.254,2.1,2.1,0,0,0-1.754-.863,2.075,2.075,0,0,0-1.727.852A3.925,3.925,0,0,0,21.43-4.133Z" transform="translate(1017.443 4116.974)" fill="#12263f"/>
    <path id="Trazado_207119" data-name="Trazado 207119" d="M9.18-10.148H5.523V0H4.031V-10.148H.383v-1.227h8.8Zm4.385,2.992a4.331,4.331,0,0,0-.711-.055A1.9,1.9,0,0,0,10.924-6V0H9.479V-8.453h1.406l.023.977a2.251,2.251,0,0,1,2.016-1.133,1.477,1.477,0,0,1,.641.109ZM16.463,0H15.018V-8.453h1.445ZM14.9-10.7a.863.863,0,0,1,.215-.594.807.807,0,0,1,.637-.242.819.819,0,0,1,.641.242.854.854,0,0,1,.219.594.826.826,0,0,1-.219.586.834.834,0,0,1-.641.234.821.821,0,0,1-.637-.234A.834.834,0,0,1,14.9-10.7Zm5.234,2.242.039.938a3.122,3.122,0,0,1,2.508-1.094A2.417,2.417,0,0,1,25.1-7.25a3.2,3.2,0,0,1,1.1-.984,3.242,3.242,0,0,1,1.6-.375q2.781,0,2.828,2.945V0H29.174V-5.578a1.941,1.941,0,0,0-.414-1.355,1.823,1.823,0,0,0-1.391-.449,1.916,1.916,0,0,0-1.336.48,1.949,1.949,0,0,0-.617,1.293V0H23.963V-5.539a1.613,1.613,0,0,0-1.8-1.844,1.934,1.934,0,0,0-1.945,1.211V0H18.768V-8.453ZM36.307.156a3.693,3.693,0,0,1-2.8-1.129,4.19,4.19,0,0,1-1.078-3.02v-.266a5.073,5.073,0,0,1,.48-2.246,3.748,3.748,0,0,1,1.344-1.547,3.378,3.378,0,0,1,1.871-.559A3.166,3.166,0,0,1,38.69-7.523,4.7,4.7,0,0,1,39.6-4.414v.6H33.877a3,3,0,0,0,.73,2.02,2.3,2.3,0,0,0,1.777.77,2.517,2.517,0,0,0,1.3-.312,3.259,3.259,0,0,0,.93-.828l.883.688A3.55,3.55,0,0,1,36.307.156Zm-.18-7.578a1.928,1.928,0,0,0-1.469.637A3.1,3.1,0,0,0,33.924-5h4.234v-.109a2.753,2.753,0,0,0-.594-1.707A1.815,1.815,0,0,0,36.127-7.422ZM46.2-2.242a1.064,1.064,0,0,0-.441-.91,4.249,4.249,0,0,0-1.539-.559,7.277,7.277,0,0,1-1.742-.562,2.479,2.479,0,0,1-.953-.781,1.869,1.869,0,0,1-.309-1.078,2.193,2.193,0,0,1,.879-1.758,3.432,3.432,0,0,1,2.246-.719,3.532,3.532,0,0,1,2.332.742,2.357,2.357,0,0,1,.895,1.9H46.111a1.3,1.3,0,0,0-.5-1.023,1.888,1.888,0,0,0-1.27-.43,1.976,1.976,0,0,0-1.234.344,1.082,1.082,0,0,0-.445.9.877.877,0,0,0,.414.789,5.1,5.1,0,0,0,1.5.508,7.8,7.8,0,0,1,1.754.578,2.558,2.558,0,0,1,1,.809,1.988,1.988,0,0,1,.324,1.152,2.163,2.163,0,0,1-.906,1.816,3.8,3.8,0,0,1-2.352.684,4.257,4.257,0,0,1-1.8-.359,2.922,2.922,0,0,1-1.223-1A2.42,2.42,0,0,1,40.924-2.6h1.445a1.5,1.5,0,0,0,.582,1.152,2.258,2.258,0,0,0,1.434.426A2.331,2.331,0,0,0,45.7-1.355,1.02,1.02,0,0,0,46.2-2.242ZM51.486-10.5v2.047h1.578v1.117H51.486v5.249a1.173,1.173,0,0,0,.211.763.888.888,0,0,0,.719.254,3.5,3.5,0,0,0,.688-.094V0a4.215,4.215,0,0,1-1.109.155A1.8,1.8,0,0,1,50.533-.43a2.517,2.517,0,0,1-.492-1.664V-7.336H48.5V-8.453h1.539V-10.5Zm7.352,3.344a4.331,4.331,0,0,0-.711-.055A1.9,1.9,0,0,0,56.2-6V0H54.752V-8.453h1.406l.023.977A2.251,2.251,0,0,1,58.2-8.609a1.477,1.477,0,0,1,.641.109ZM63.53.156a3.693,3.693,0,0,1-2.8-1.129,4.19,4.19,0,0,1-1.078-3.02v-.266a5.073,5.073,0,0,1,.48-2.246,3.748,3.748,0,0,1,1.344-1.547,3.378,3.378,0,0,1,1.871-.559,3.166,3.166,0,0,1,2.562,1.086,4.7,4.7,0,0,1,.914,3.109v.6H61.1a3,3,0,0,0,.73,2.02,2.3,2.3,0,0,0,1.777.77,2.517,2.517,0,0,0,1.3-.312,3.259,3.259,0,0,0,.93-.828l.883.688A3.55,3.55,0,0,1,63.53.156Zm-.18-7.578a1.928,1.928,0,0,0-1.469.637A3.1,3.1,0,0,0,61.147-5h4.234v-.109a2.753,2.753,0,0,0-.594-1.707A1.815,1.815,0,0,0,63.35-7.422Z" transform="translate(1017.443 4140.974)" fill="#12263f"/>
    <path id="Trazado_207116" data-name="Trazado 207116" d="M3.258-11.375,6.977-2.094,10.7-11.375h1.945V0h-1.5V-4.43l.141-4.781L7.547,0H6.4L2.672-9.187,2.82-4.43V0H1.32V-11.375ZM18.57.156a3.693,3.693,0,0,1-2.8-1.129A4.19,4.19,0,0,1,14.7-3.992v-.266a5.073,5.073,0,0,1,.48-2.246A3.748,3.748,0,0,1,16.52-8.051a3.378,3.378,0,0,1,1.871-.559,3.166,3.166,0,0,1,2.563,1.086,4.7,4.7,0,0,1,.914,3.109v.6H16.141a3,3,0,0,0,.73,2.02,2.3,2.3,0,0,0,1.777.77,2.517,2.517,0,0,0,1.3-.312,3.259,3.259,0,0,0,.93-.828l.883.688A3.55,3.55,0,0,1,18.57.156Zm-.18-7.578a1.928,1.928,0,0,0-1.469.637A3.1,3.1,0,0,0,16.188-5h4.234v-.109a2.753,2.753,0,0,0-.594-1.707A1.815,1.815,0,0,0,18.391-7.422Zm10.07,5.18a1.064,1.064,0,0,0-.441-.91,4.249,4.249,0,0,0-1.539-.559,7.277,7.277,0,0,1-1.742-.562,2.479,2.479,0,0,1-.953-.781,1.869,1.869,0,0,1-.309-1.078,2.193,2.193,0,0,1,.879-1.758A3.432,3.432,0,0,1,26.6-8.609a3.532,3.532,0,0,1,2.332.742,2.357,2.357,0,0,1,.895,1.9H28.375a1.3,1.3,0,0,0-.5-1.023,1.888,1.888,0,0,0-1.27-.43,1.976,1.976,0,0,0-1.234.344,1.082,1.082,0,0,0-.445.9.877.877,0,0,0,.414.789,5.1,5.1,0,0,0,1.5.508,7.8,7.8,0,0,1,1.754.578,2.558,2.558,0,0,1,1,.809,1.988,1.988,0,0,1,.324,1.152A2.163,2.163,0,0,1,29-.527a3.8,3.8,0,0,1-2.352.684,4.257,4.257,0,0,1-1.8-.359,2.922,2.922,0,0,1-1.223-1A2.42,2.42,0,0,1,23.188-2.6h1.445a1.5,1.5,0,0,0,.582,1.152,2.258,2.258,0,0,0,1.434.426,2.331,2.331,0,0,0,1.316-.332A1.02,1.02,0,0,0,28.461-2.242Z" transform="translate(1017.443 4164.974)" fill="#12263f"/>
    <g id="Grupo_150104" data-name="Grupo 150104" transform="translate(472 3811.5)">
      <g id="Grupo_150103" data-name="Grupo 150103" clip-path="url(#clip-path)">
        <path id="Trazado_206804" data-name="Trazado 206804" d="M537.682,232.494a1.034,1.034,0,0,0-.965-1.1l-9.388.1a1.034,1.034,0,0,1-.965-1.1V230a1.034,1.034,0,0,0-.965-1.1l-4.86.053a1.062,1.062,0,0,0-.965,1.125v5.137h18.108Z" fill="#4d4d4d"/>
        <path id="Trazado_206805" data-name="Trazado 206805" d="M519.574,235.216v9.575a1.035,1.035,0,0,0,.965,1.1l16.178-.177a1.061,1.061,0,0,0,.965-1.125v-9.377Z" fill="gray"/>
        <path id="Trazado_206806" data-name="Trazado 206806" d="M128.345,377.913H10.225a7.634,7.634,0,0,1-7.635-7.634V278.136a7.635,7.635,0,0,1,7.635-7.635h118.12a7.634,7.634,0,0,1,7.634,7.635v92.143a7.634,7.634,0,0,1-7.634,7.634" fill="#f2f2f2"/>
        <path id="Trazado_206807" data-name="Trazado 206807" d="M135.98,302.333H2.591V276.659A6.158,6.158,0,0,1,8.748,270.5H129.822a6.158,6.158,0,0,1,6.158,6.158Z" fill="#ccc"/>
      </g>
    </g>
    <path id="Trazado_207128" data-name="Trazado 207128" d="M9.945-3.789A4.025,4.025,0,0,1,8.59-.9,4.76,4.76,0,0,1,5.367.156,4.28,4.28,0,0,1,1.926-1.316,6.038,6.038,0,0,1,.672-5.359v-.7A6.819,6.819,0,0,1,1.25-8.945,4.332,4.332,0,0,1,2.9-10.863a4.629,4.629,0,0,1,2.5-.668A4.637,4.637,0,0,1,8.57-10.477,4.326,4.326,0,0,1,9.961-7.516H7.617A2.376,2.376,0,0,0,7-9.113a2.271,2.271,0,0,0-1.605-.5,1.991,1.991,0,0,0-1.754.84,4.707,4.707,0,0,0-.6,2.605V-5.3a5.038,5.038,0,0,0,.559,2.7,1.954,1.954,0,0,0,1.762.852,2.314,2.314,0,0,0,1.621-.5A2.241,2.241,0,0,0,7.6-3.789ZM13.719,0H11.453V-12h2.266Zm4.242,0H15.7V-8.453h2.266Zm-2.4-10.641a1.112,1.112,0,0,1,.34-.836,1.277,1.277,0,0,1,.926-.328,1.28,1.28,0,0,1,.922.328,1.105,1.105,0,0,1,.344.836,1.108,1.108,0,0,1-.348.844,1.283,1.283,0,0,1-.918.328A1.283,1.283,0,0,1,15.91-9.8,1.108,1.108,0,0,1,15.563-10.641ZM23.711.156A4.15,4.15,0,0,1,20.684-.984a4.054,4.054,0,0,1-1.168-3.039v-.219a5.106,5.106,0,0,1,.492-2.277A3.612,3.612,0,0,1,21.4-8.066a3.914,3.914,0,0,1,2.059-.543,3.508,3.508,0,0,1,2.73,1.094,4.444,4.444,0,0,1,1,3.1v.922H21.8a2.1,2.1,0,0,0,.66,1.328,2,2,0,0,0,1.395.5A2.437,2.437,0,0,0,25.9-2.609l1.109,1.242A3.389,3.389,0,0,1,25.633-.246,4.511,4.511,0,0,1,23.711.156Zm-.258-6.945a1.411,1.411,0,0,0-1.09.455,2.357,2.357,0,0,0-.535,1.3h3.141v-.181a1.681,1.681,0,0,0-.406-1.165A1.456,1.456,0,0,0,23.453-6.789Zm7.094-1.664.07.977a2.951,2.951,0,0,1,2.43-1.133,2.453,2.453,0,0,1,2,.789,3.682,3.682,0,0,1,.672,2.359V0H33.461V-5.406a1.465,1.465,0,0,0-.312-1.043,1.4,1.4,0,0,0-1.039-.324,1.553,1.553,0,0,0-1.43.813V0H28.422V-8.453Zm9.586-2.078v2.078h1.445V-6.8H40.133v4.219a1.007,1.007,0,0,0,.18.672A.9.9,0,0,0,41-1.7a3.6,3.6,0,0,0,.664-.055V-.047a4.648,4.648,0,0,1-1.367.2,2.156,2.156,0,0,1-2.422-2.4V-6.8H36.641V-8.453h1.234v-2.078ZM46.727.156A4.15,4.15,0,0,1,43.7-.984a4.054,4.054,0,0,1-1.168-3.039v-.219a5.106,5.106,0,0,1,.492-2.277,3.612,3.612,0,0,1,1.395-1.547,3.914,3.914,0,0,1,2.059-.543,3.508,3.508,0,0,1,2.73,1.094,4.444,4.444,0,0,1,1,3.1v.922H44.82a2.1,2.1,0,0,0,.66,1.328,2,2,0,0,0,1.395.5,2.437,2.437,0,0,0,2.039-.945l1.109,1.242A3.389,3.389,0,0,1,48.648-.246,4.511,4.511,0,0,1,46.727.156Zm-.258-6.945a1.411,1.411,0,0,0-1.09.455,2.357,2.357,0,0,0-.535,1.3h3.141v-.181a1.681,1.681,0,0,0-.406-1.165A1.456,1.456,0,0,0,46.469-6.789Z" transform="translate(510.906 4104.635)" fill="#12263f"/>
    <path id="Trazado_207126" data-name="Trazado 207126" d="M2.93,0H1.43V-11.375h1.5ZM5.672,0V-11.375H8.883a5.169,5.169,0,0,1,2.625.656A4.438,4.438,0,0,1,13.27-8.852,6.078,6.078,0,0,1,13.9-6.07v.727a6.1,6.1,0,0,1-.621,2.82A4.369,4.369,0,0,1,11.5-.664,5.5,5.5,0,0,1,8.82,0Zm1.5-10.148v8.922H8.75a3.434,3.434,0,0,0,2.7-1.079,4.458,4.458,0,0,0,.965-3.073v-.665a4.529,4.529,0,0,0-.91-3.014,3.239,3.239,0,0,0-2.582-1.091ZM24.531-3.609A4.185,4.185,0,0,1,23.2-.824a4.365,4.365,0,0,1-2.98.98,4.008,4.008,0,0,1-3.23-1.445,5.815,5.815,0,0,1-1.215-3.867V-6.25a6.481,6.481,0,0,1,.566-2.789,4.231,4.231,0,0,1,1.605-1.848,4.47,4.47,0,0,1,2.406-.645,4.11,4.11,0,0,1,2.906,1.012,4.235,4.235,0,0,1,1.273,2.8H23.023a3.268,3.268,0,0,0-.848-1.975,2.565,2.565,0,0,0-1.824-.611A2.684,2.684,0,0,0,18.1-9.241a4.882,4.882,0,0,0-.816,3.026v1.1a5.018,5.018,0,0,0,.773,2.948A2.5,2.5,0,0,0,20.219-1.07a2.886,2.886,0,0,0,1.918-.566,3.143,3.143,0,0,0,.887-1.973ZM27.922,0H26.477V-12h1.445ZM31.8,0H30.359V-8.453H31.8ZM30.242-10.7a.863.863,0,0,1,.215-.594.807.807,0,0,1,.637-.242.819.819,0,0,1,.641.242.854.854,0,0,1,.219.594.826.826,0,0,1-.219.586.834.834,0,0,1-.641.234.821.821,0,0,1-.637-.234A.834.834,0,0,1,30.242-10.7ZM37.625.156a3.693,3.693,0,0,1-2.8-1.129,4.19,4.19,0,0,1-1.078-3.02v-.266A5.073,5.073,0,0,1,34.23-6.5a3.748,3.748,0,0,1,1.344-1.547,3.378,3.378,0,0,1,1.871-.559,3.166,3.166,0,0,1,2.563,1.086,4.7,4.7,0,0,1,.914,3.109v.6H35.2a3,3,0,0,0,.73,2.02,2.3,2.3,0,0,0,1.777.77A2.517,2.517,0,0,0,39-1.336a3.259,3.259,0,0,0,.93-.828l.883.688A3.55,3.55,0,0,1,37.625.156Zm-.18-7.578a1.928,1.928,0,0,0-1.469.637A3.1,3.1,0,0,0,35.242-5h4.234v-.109a2.753,2.753,0,0,0-.594-1.707A1.815,1.815,0,0,0,37.445-7.422Zm6.516-1.031.047,1.063a3.08,3.08,0,0,1,2.531-1.219q2.68,0,2.7,3.023V0H47.8V-5.594a1.946,1.946,0,0,0-.418-1.352A1.675,1.675,0,0,0,46.1-7.383a2.086,2.086,0,0,0-1.234.375,2.546,2.546,0,0,0-.828.984V0H42.594V-8.453ZM53.383-10.5v2.047h1.578v1.117H53.383v5.249a1.173,1.173,0,0,0,.211.763.888.888,0,0,0,.719.254A3.5,3.5,0,0,0,55-1.164V0a4.215,4.215,0,0,1-1.109.155A1.8,1.8,0,0,1,52.43-.43a2.517,2.517,0,0,1-.492-1.664V-7.336H50.4V-8.453h1.539V-10.5ZM60.156.156a3.693,3.693,0,0,1-2.8-1.129,4.19,4.19,0,0,1-1.078-3.02v-.266a5.073,5.073,0,0,1,.48-2.246,3.748,3.748,0,0,1,1.344-1.547,3.378,3.378,0,0,1,1.871-.559,3.166,3.166,0,0,1,2.563,1.086,4.7,4.7,0,0,1,.914,3.109v.6H57.727a3,3,0,0,0,.73,2.02,2.3,2.3,0,0,0,1.777.77,2.517,2.517,0,0,0,1.3-.312,3.259,3.259,0,0,0,.93-.828l.883.688A3.55,3.55,0,0,1,60.156.156Zm-.18-7.578a1.928,1.928,0,0,0-1.469.637A3.1,3.1,0,0,0,57.773-5h4.234v-.109a2.753,2.753,0,0,0-.594-1.707A1.815,1.815,0,0,0,59.977-7.422Z" transform="translate(510.906 4141.259)" fill="#12263f"/>
    <path id="Trazado_207127" data-name="Trazado 207127" d="M9.688-3.609A4.185,4.185,0,0,1,8.355-.824a4.365,4.365,0,0,1-2.98.98,4.008,4.008,0,0,1-3.23-1.445A5.815,5.815,0,0,1,.93-5.156V-6.25A6.481,6.481,0,0,1,1.5-9.039,4.231,4.231,0,0,1,3.1-10.887a4.47,4.47,0,0,1,2.406-.645A4.11,4.11,0,0,1,8.414-10.52a4.235,4.235,0,0,1,1.273,2.8H8.18a3.268,3.268,0,0,0-.848-1.975A2.565,2.565,0,0,0,5.508-10.3,2.684,2.684,0,0,0,3.254-9.241a4.882,4.882,0,0,0-.816,3.026v1.1a5.018,5.018,0,0,0,.773,2.948A2.5,2.5,0,0,0,5.375-1.07a2.887,2.887,0,0,0,1.918-.566A3.143,3.143,0,0,0,8.18-3.609ZM13.078,0H11.633V-12h1.445Zm3.883,0H15.516V-8.453h1.445ZM15.4-10.7a.863.863,0,0,1,.215-.594.807.807,0,0,1,.637-.242.819.819,0,0,1,.641.242.854.854,0,0,1,.219.594.826.826,0,0,1-.219.586.834.834,0,0,1-.641.234.821.821,0,0,1-.637-.234A.834.834,0,0,1,15.4-10.7ZM22.781.156a3.693,3.693,0,0,1-2.8-1.129,4.19,4.19,0,0,1-1.078-3.02v-.266a5.073,5.073,0,0,1,.48-2.246A3.748,3.748,0,0,1,20.73-8.051,3.378,3.378,0,0,1,22.6-8.609a3.166,3.166,0,0,1,2.563,1.086,4.7,4.7,0,0,1,.914,3.109v.6H20.352a3,3,0,0,0,.73,2.02,2.3,2.3,0,0,0,1.777.77,2.517,2.517,0,0,0,1.3-.312,3.259,3.259,0,0,0,.93-.828l.883.688A3.55,3.55,0,0,1,22.781.156ZM22.6-7.422a1.928,1.928,0,0,0-1.469.637A3.1,3.1,0,0,0,20.4-5h4.234v-.109a2.753,2.753,0,0,0-.594-1.707A1.815,1.815,0,0,0,22.6-7.422Zm6.516-1.031.047,1.063A3.08,3.08,0,0,1,31.7-8.609q2.68,0,2.7,3.023V0H32.953V-5.594a1.946,1.946,0,0,0-.418-1.352,1.675,1.675,0,0,0-1.277-.437,2.086,2.086,0,0,0-1.234.375,2.546,2.546,0,0,0-.828.984V0H27.75V-8.453ZM38.539-10.5v2.047h1.578v1.117H38.539v5.249a1.173,1.173,0,0,0,.211.763.888.888,0,0,0,.719.254,3.5,3.5,0,0,0,.688-.094V0a4.215,4.215,0,0,1-1.109.155A1.8,1.8,0,0,1,37.586-.43a2.517,2.517,0,0,1-.492-1.664V-7.336H35.555V-8.453h1.539V-10.5ZM45.313.156a3.693,3.693,0,0,1-2.8-1.129,4.19,4.19,0,0,1-1.078-3.02v-.266a5.073,5.073,0,0,1,.48-2.246,3.748,3.748,0,0,1,1.344-1.547,3.378,3.378,0,0,1,1.871-.559A3.166,3.166,0,0,1,47.7-7.523a4.7,4.7,0,0,1,.914,3.109v.6H42.883a3,3,0,0,0,.73,2.02,2.3,2.3,0,0,0,1.777.77,2.517,2.517,0,0,0,1.3-.312,3.259,3.259,0,0,0,.93-.828l.883.688A3.55,3.55,0,0,1,45.313.156Zm-.18-7.578a1.928,1.928,0,0,0-1.469.637A3.1,3.1,0,0,0,42.93-5h4.234v-.109a2.753,2.753,0,0,0-.594-1.707A1.815,1.815,0,0,0,45.133-7.422ZM55.2-2.242a1.064,1.064,0,0,0-.441-.91,4.249,4.249,0,0,0-1.539-.559,7.277,7.277,0,0,1-1.742-.562,2.479,2.479,0,0,1-.953-.781,1.869,1.869,0,0,1-.309-1.078A2.193,2.193,0,0,1,51.1-7.891a3.432,3.432,0,0,1,2.246-.719,3.532,3.532,0,0,1,2.332.742,2.357,2.357,0,0,1,.895,1.9H55.117a1.3,1.3,0,0,0-.5-1.023,1.888,1.888,0,0,0-1.27-.43,1.976,1.976,0,0,0-1.234.344,1.082,1.082,0,0,0-.445.9.877.877,0,0,0,.414.789,5.1,5.1,0,0,0,1.5.508,7.8,7.8,0,0,1,1.754.578,2.558,2.558,0,0,1,1,.809,1.988,1.988,0,0,1,.324,1.152,2.163,2.163,0,0,1-.906,1.816,3.8,3.8,0,0,1-2.352.684,4.257,4.257,0,0,1-1.8-.359,2.922,2.922,0,0,1-1.223-1A2.42,2.42,0,0,1,49.93-2.6h1.445a1.5,1.5,0,0,0,.582,1.152,2.258,2.258,0,0,0,1.434.426,2.331,2.331,0,0,0,1.316-.332A1.02,1.02,0,0,0,55.2-2.242Z" transform="translate(510.906 4165.259)" fill="#12263f"/>
    <g id="Grupo_150106" data-name="Grupo 150106" transform="translate(472 3811.5)">
      <g id="Grupo_150105" data-name="Grupo 150105" clip-path="url(#clip-path)">
        <path id="Trazado_206808" data-name="Trazado 206808" d="M31.145,280.78a1.034,1.034,0,0,0-.965-1.1l-9.388.1a1.034,1.034,0,0,1-.965-1.1v-.384a1.034,1.034,0,0,0-.965-1.1l-4.86.053a1.062,1.062,0,0,0-.965,1.125V283.5H31.145Z" fill="#4d4d4d"/>
        <path id="Trazado_206809" data-name="Trazado 206809" d="M13.038,283.5v9.575a1.035,1.035,0,0,0,.965,1.1L30.181,294a1.061,1.061,0,0,0,.965-1.125V283.5Z" fill="gray"/>
        <path id="Trazado_206810" data-name="Trazado 206810" d="M307.418,143.417c-.042,4.6-.349,39.63.005,39.63h25.389v41.934" fill="none" stroke="#b3b3b3" stroke-miterlimit="10" stroke-width="1"/>
        <rect id="Rectángulo_298837" data-name="Rectángulo 298837" width="1" height="6.5" transform="translate(304.165 143.897) rotate(-89.598)" fill="#b3b3b3"/>
        <path id="Trazado_206811" data-name="Trazado 206811" d="M329.052,224.8a3.76,3.76,0,1,0,3.76-3.76,3.761,3.761,0,0,0-3.76,3.76" fill="#b3b3b3"/>
        <path id="Trazado_206812" data-name="Trazado 206812" d="M316.517,183.676a4.548,4.548,0,1,1,4.547,4.547,4.547,4.547,0,0,1-4.547-4.547" fill="#fff"/>
        <path id="Trazado_206813" data-name="Trazado 206813" d="M316.517,183.676a4.548,4.548,0,1,1,4.547,4.547A4.547,4.547,0,0,1,316.517,183.676Z" fill="none" stroke="#b3b3b3" stroke-miterlimit="10" stroke-width="1"/>
        <path id="Trazado_206814" data-name="Trazado 206814" d="M409.623,325.683c10.913.08,43.09.287,43.09-.027v-25.39h43.3" fill="none" stroke="#b3b3b3" stroke-miterlimit="10" stroke-width="1"/>
        <path id="Trazado_206815" data-name="Trazado 206815" d="M409.79,329.438a3.76,3.76,0,1,1,3.783-3.737,3.761,3.761,0,0,1-3.783,3.737" fill="#b3b3b3"/>
        <rect id="Rectángulo_298838" data-name="Rectángulo 298838" width="1" height="6.5" transform="translate(495.517 297.016)" fill="#b3b3b3"/>
        <path id="Trazado_206816" data-name="Trazado 206816" d="M452.422,316.561a4.548,4.548,0,1,1,4.547-4.547,4.547,4.547,0,0,1-4.547,4.547" fill="#fff"/>
        <path id="Trazado_206817" data-name="Trazado 206817" d="M452.422,316.561a4.548,4.548,0,1,1,4.547-4.547A4.547,4.547,0,0,1,452.422,316.561Z" fill="none" stroke="#b3b3b3" stroke-miterlimit="10" stroke-width="1"/>
        <path id="Trazado_206818" data-name="Trazado 206818" d="M153.5,325.66c4.988.039,45.926.352,45.926,0v-25.39h40" fill="none" stroke="#b3b3b3" stroke-miterlimit="10" stroke-width="1"/>
        <rect id="Rectángulo_298839" data-name="Rectángulo 298839" width="6.5" height="1" transform="translate(152.98 328.906) rotate(-89.656)" fill="#b3b3b3"/>
        <path id="Trazado_206819" data-name="Trazado 206819" d="M239.241,304.026a3.76,3.76,0,1,0-3.76-3.76,3.761,3.761,0,0,0,3.76,3.76" fill="#b3b3b3"/>
        <path id="Trazado_206820" data-name="Trazado 206820" d="M199.137,316.561a4.548,4.548,0,1,1,4.547-4.547,4.547,4.547,0,0,1-4.547,4.547" fill="#fff"/>
        <path id="Trazado_206821" data-name="Trazado 206821" d="M199.137,316.561a4.548,4.548,0,1,1,4.547-4.547A4.547,4.547,0,0,1,199.137,316.561Z" fill="none" stroke="#b3b3b3" stroke-miterlimit="10" stroke-width="1"/>
        <path id="Trazado_206822" data-name="Trazado 206822" d="M118.27,195.764H31.636a31.006,31.006,0,1,1,0-62.011H118.27a31.006,31.006,0,1,1,0,62.011" fill="#fdd7ae"/>
        <path id="Trazado_206823" data-name="Trazado 206823" d="M118.27,195.764H31.636a31.006,31.006,0,1,1,0-62.011H118.27a31.006,31.006,0,1,1,0,62.011Z" fill="none" stroke="#f9860b" stroke-miterlimit="10" stroke-width="1.261"/>
      </g>
    </g>
    <path id="Trazado_207130" data-name="Trazado 207130" d="M9.578-9.477H6.094V0H3.75V-9.477H.313v-1.9H9.578ZM13.04,0a2.507,2.507,0,0,1-.227-.758A2.732,2.732,0,0,1,10.68.156,3,3,0,0,1,8.622-.562a2.312,2.312,0,0,1-.816-1.812,2.389,2.389,0,0,1,1-2.062,4.915,4.915,0,0,1,2.879-.727h1.039v-.484a1.393,1.393,0,0,0-.3-.937,1.183,1.183,0,0,0-.949-.352,1.345,1.345,0,0,0-.895.273.929.929,0,0,0-.324.75H7.993a2.268,2.268,0,0,1,.453-1.359,3,3,0,0,1,1.281-.98,4.669,4.669,0,0,1,1.859-.355,3.689,3.689,0,0,1,2.48.785,2.747,2.747,0,0,1,.918,2.207v3.664a4.041,4.041,0,0,0,.336,1.82V0ZM11.172-1.57a1.945,1.945,0,0,0,.922-.223,1.462,1.462,0,0,0,.625-.6V-3.844h-.844q-1.7,0-1.8,1.172l-.008.133a.9.9,0,0,0,.3.7A1.153,1.153,0,0,0,11.172-1.57ZM24.336-4.148A5.119,5.119,0,0,1,23.469-.98,2.872,2.872,0,0,1,21.047.156,2.639,2.639,0,0,1,18.852-.9l-.1.9H16.719V-12h2.258v4.3a2.571,2.571,0,0,1,2.055-.914,2.9,2.9,0,0,1,2.426,1.137,5.126,5.126,0,0,1,.879,3.2Zm-2.258-.164a3.363,3.363,0,0,0-.406-1.871,1.374,1.374,0,0,0-1.211-.59,1.489,1.489,0,0,0-1.484.883v3.336a1.509,1.509,0,0,0,1.5.891,1.394,1.394,0,0,0,1.438-1.078A5.562,5.562,0,0,0,22.079-4.312ZM28.11,0H25.844V-12H28.11Zm6.758,0a2.507,2.507,0,0,1-.227-.758,2.732,2.732,0,0,1-2.133.914A3,3,0,0,1,30.45-.562a2.312,2.312,0,0,1-.816-1.812,2.389,2.389,0,0,1,1-2.062,4.915,4.915,0,0,1,2.879-.727h1.039v-.484a1.393,1.393,0,0,0-.3-.937,1.183,1.183,0,0,0-.949-.352,1.345,1.345,0,0,0-.895.273.929.929,0,0,0-.324.75H29.821a2.268,2.268,0,0,1,.453-1.359,3,3,0,0,1,1.281-.98,4.669,4.669,0,0,1,1.859-.355,3.689,3.689,0,0,1,2.48.785,2.747,2.747,0,0,1,.918,2.207v3.664a4.041,4.041,0,0,0,.336,1.82V0ZM33-1.57a1.945,1.945,0,0,0,.922-.223,1.462,1.462,0,0,0,.625-.6V-3.844H33.7q-1.7,0-1.8,1.172l-.008.133a.9.9,0,0,0,.3.7A1.153,1.153,0,0,0,33-1.57Zm10.125-.766a.727.727,0,0,0-.41-.652A4.659,4.659,0,0,0,41.4-3.414q-3.016-.633-3.016-2.562a2.323,2.323,0,0,1,.934-1.879,3.766,3.766,0,0,1,2.441-.754,4.053,4.053,0,0,1,2.574.758A2.388,2.388,0,0,1,45.3-5.883H43.04a1.092,1.092,0,0,0-.312-.8A1.322,1.322,0,0,0,41.75-7a1.351,1.351,0,0,0-.883.258.814.814,0,0,0-.312.656.7.7,0,0,0,.355.605,3.657,3.657,0,0,0,1.2.4,9.8,9.8,0,0,1,1.422.379A2.336,2.336,0,0,1,45.321-2.43a2.2,2.2,0,0,1-.992,1.871,4.28,4.28,0,0,1-2.562.715,4.47,4.47,0,0,1-1.887-.379,3.166,3.166,0,0,1-1.293-1.039,2.414,2.414,0,0,1-.469-1.426h2.141a1.179,1.179,0,0,0,.445.922,1.766,1.766,0,0,0,1.109.32,1.635,1.635,0,0,0,.98-.246A.766.766,0,0,0,43.125-2.336Zm7.281-1.953a5.094,5.094,0,0,1,.887-3.148,2.877,2.877,0,0,1,2.426-1.172,2.589,2.589,0,0,1,2.039.922V-12h2.266V0H55.985l-.109-.9A2.657,2.657,0,0,1,53.7.156,2.869,2.869,0,0,1,51.309-1.02,5.258,5.258,0,0,1,50.407-4.289Zm2.258.168A3.337,3.337,0,0,0,53.079-2.3a1.349,1.349,0,0,0,1.2.634,1.511,1.511,0,0,0,1.477-.884V-5.889A1.489,1.489,0,0,0,54.3-6.773Q52.665-6.773,52.665-4.121Zm11,4.277A4.15,4.15,0,0,1,60.637-.984a4.054,4.054,0,0,1-1.168-3.039v-.219a5.106,5.106,0,0,1,.492-2.277,3.612,3.612,0,0,1,1.395-1.547,3.914,3.914,0,0,1,2.059-.543,3.508,3.508,0,0,1,2.73,1.094,4.444,4.444,0,0,1,1,3.1v.922H61.758a2.1,2.1,0,0,0,.66,1.328,2,2,0,0,0,1.395.5,2.437,2.437,0,0,0,2.039-.945l1.109,1.242A3.389,3.389,0,0,1,65.586-.246,4.511,4.511,0,0,1,63.665.156Zm-.258-6.945a1.411,1.411,0,0,0-1.09.455,2.357,2.357,0,0,0-.535,1.3h3.141v-.181a1.681,1.681,0,0,0-.406-1.165A1.456,1.456,0,0,0,63.407-6.789Z" transform="translate(510.527 3970.933)" fill="#12263f"/>
    <path id="Trazado_207129" data-name="Trazado 207129" d="M.516-4.289A5.094,5.094,0,0,1,1.4-7.437,2.877,2.877,0,0,1,3.828-8.609a2.589,2.589,0,0,1,2.039.922V-12H8.133V0H6.094L5.984-.9A2.657,2.657,0,0,1,3.813.156,2.869,2.869,0,0,1,1.418-1.02,5.258,5.258,0,0,1,.516-4.289Zm2.258.168A3.337,3.337,0,0,0,3.188-2.3a1.349,1.349,0,0,0,1.2.634,1.511,1.511,0,0,0,1.477-.884V-5.889a1.489,1.489,0,0,0-1.461-.884Q2.773-6.773,2.773-4.121ZM12.266,0H10V-8.453h2.266Zm-2.4-10.641a1.112,1.112,0,0,1,.34-.836,1.277,1.277,0,0,1,.926-.328,1.28,1.28,0,0,1,.922.328,1.105,1.105,0,0,1,.344.836,1.108,1.108,0,0,1-.348.844,1.283,1.283,0,0,1-.918.328,1.283,1.283,0,0,1-.918-.328A1.108,1.108,0,0,1,9.867-10.641Zm6.375,2.188.07.945a2.971,2.971,0,0,1,2.43-1.1A2.255,2.255,0,0,1,20.984-7.32a2.9,2.9,0,0,1,2.539-1.289,2.521,2.521,0,0,1,2.047.8,3.681,3.681,0,0,1,.672,2.41V0H23.977V-5.391A1.61,1.61,0,0,0,23.7-6.441a1.246,1.246,0,0,0-.992-.332A1.409,1.409,0,0,0,21.3-5.8L21.3,0H19.047V-5.383a1.59,1.59,0,0,0-.289-1.062,1.259,1.259,0,0,0-.984-.328,1.463,1.463,0,0,0-1.391.8V0H14.125V-8.453ZM31.867.156A4.15,4.15,0,0,1,28.84-.984a4.054,4.054,0,0,1-1.168-3.039v-.219a5.106,5.106,0,0,1,.492-2.277,3.612,3.612,0,0,1,1.395-1.547,3.914,3.914,0,0,1,2.059-.543,3.508,3.508,0,0,1,2.73,1.094,4.444,4.444,0,0,1,1,3.1v.922H29.961a2.1,2.1,0,0,0,.66,1.328,2,2,0,0,0,1.395.5,2.437,2.437,0,0,0,2.039-.945l1.109,1.242A3.389,3.389,0,0,1,33.789-.246,4.511,4.511,0,0,1,31.867.156Zm-.258-6.945a1.411,1.411,0,0,0-1.09.455,2.357,2.357,0,0,0-.535,1.3h3.141v-.181a1.681,1.681,0,0,0-.406-1.165A1.456,1.456,0,0,0,31.609-6.789ZM38.7-8.453l.07.977A2.951,2.951,0,0,1,41.2-8.609a2.453,2.453,0,0,1,2,.789,3.682,3.682,0,0,1,.672,2.359V0H41.617V-5.406A1.465,1.465,0,0,0,41.3-6.449a1.4,1.4,0,0,0-1.039-.324,1.553,1.553,0,0,0-1.43.813V0H36.578V-8.453ZM50.164-2.336a.727.727,0,0,0-.41-.652,4.659,4.659,0,0,0-1.316-.426q-3.016-.633-3.016-2.562a2.323,2.323,0,0,1,.934-1.879A3.766,3.766,0,0,1,48.8-8.609a4.053,4.053,0,0,1,2.574.758,2.388,2.388,0,0,1,.965,1.969H50.078a1.092,1.092,0,0,0-.312-.8A1.322,1.322,0,0,0,48.789-7a1.351,1.351,0,0,0-.883.258.814.814,0,0,0-.312.656.7.7,0,0,0,.355.605,3.657,3.657,0,0,0,1.2.4A9.8,9.8,0,0,1,50.57-4.7,2.336,2.336,0,0,1,52.359-2.43a2.2,2.2,0,0,1-.992,1.871A4.28,4.28,0,0,1,48.8.156a4.47,4.47,0,0,1-1.887-.379,3.166,3.166,0,0,1-1.293-1.039,2.414,2.414,0,0,1-.469-1.426H47.3a1.179,1.179,0,0,0,.445.922,1.766,1.766,0,0,0,1.109.32,1.635,1.635,0,0,0,.98-.246A.766.766,0,0,0,50.164-2.336ZM56.2,0H53.93V-8.453H56.2ZM53.8-10.641a1.112,1.112,0,0,1,.34-.836,1.277,1.277,0,0,1,.926-.328,1.28,1.28,0,0,1,.922.328,1.105,1.105,0,0,1,.344.836,1.108,1.108,0,0,1-.348.844,1.283,1.283,0,0,1-.918.328,1.283,1.283,0,0,1-.918-.328A1.108,1.108,0,0,1,53.8-10.641ZM57.7-4.3a5.013,5.013,0,0,1,.484-2.242A3.546,3.546,0,0,1,59.582-8.07,4.069,4.069,0,0,1,61.7-8.609a3.849,3.849,0,0,1,2.793,1.047A4.2,4.2,0,0,1,65.7-4.719l.016.578A4.418,4.418,0,0,1,64.625-1.02,3.775,3.775,0,0,1,61.711.156a3.793,3.793,0,0,1-2.918-1.172A4.5,4.5,0,0,1,57.7-4.2Zm2.258.16A3.16,3.16,0,0,0,60.414-2.3a1.5,1.5,0,0,0,1.3.638,1.5,1.5,0,0,0,1.281-.63,3.457,3.457,0,0,0,.461-2.015,3.128,3.128,0,0,0-.461-1.831,1.5,1.5,0,0,0-1.3-.649,1.474,1.474,0,0,0-1.281.646A3.516,3.516,0,0,0,59.961-4.144ZM69.18-8.453l.07.977a2.951,2.951,0,0,1,2.43-1.133,2.453,2.453,0,0,1,2,.789,3.682,3.682,0,0,1,.672,2.359V0H72.094V-5.406a1.465,1.465,0,0,0-.312-1.043,1.4,1.4,0,0,0-1.039-.324,1.553,1.553,0,0,0-1.43.813V0H67.055V-8.453ZM79.953.156A4.15,4.15,0,0,1,76.926-.984a4.054,4.054,0,0,1-1.168-3.039v-.219A5.106,5.106,0,0,1,76.25-6.52a3.612,3.612,0,0,1,1.395-1.547A3.914,3.914,0,0,1,79.7-8.609a3.508,3.508,0,0,1,2.73,1.094,4.444,4.444,0,0,1,1,3.1v.922H78.047a2.1,2.1,0,0,0,.66,1.328,2,2,0,0,0,1.395.5,2.437,2.437,0,0,0,2.039-.945L83.25-1.367A3.389,3.389,0,0,1,81.875-.246,4.511,4.511,0,0,1,79.953.156ZM79.7-6.789a1.411,1.411,0,0,0-1.09.455,2.357,2.357,0,0,0-.535,1.3h3.141v-.181A1.681,1.681,0,0,0,80.8-6.377,1.456,1.456,0,0,0,79.7-6.789Zm9.594,4.453a.727.727,0,0,0-.41-.652,4.659,4.659,0,0,0-1.316-.426q-3.016-.633-3.016-2.562a2.323,2.323,0,0,1,.934-1.879,3.766,3.766,0,0,1,2.441-.754,4.053,4.053,0,0,1,2.574.758,2.388,2.388,0,0,1,.965,1.969H89.2a1.092,1.092,0,0,0-.312-.8A1.322,1.322,0,0,0,87.914-7a1.351,1.351,0,0,0-.883.258.814.814,0,0,0-.312.656.7.7,0,0,0,.355.605,3.657,3.657,0,0,0,1.2.4A9.8,9.8,0,0,1,89.7-4.7,2.336,2.336,0,0,1,91.484-2.43a2.2,2.2,0,0,1-.992,1.871A4.28,4.28,0,0,1,87.93.156a4.47,4.47,0,0,1-1.887-.379A3.166,3.166,0,0,1,84.75-1.262a2.414,2.414,0,0,1-.469-1.426h2.141a1.179,1.179,0,0,0,.445.922,1.766,1.766,0,0,0,1.109.32,1.635,1.635,0,0,0,.98-.246A.766.766,0,0,0,89.289-2.336Z" transform="translate(500.911 3990.933)" fill="#12263f"/>
    <g id="Grupo_150108" data-name="Grupo 150108" transform="translate(472 3811.5)">
      <g id="Grupo_150107" data-name="Grupo 150107" clip-path="url(#clip-path)">
        <path id="Trazado_206824" data-name="Trazado 206824" d="M624.807,159.09H538.173a31.005,31.005,0,1,1,0-62.011h86.634a31.005,31.005,0,0,1,0,62.011" fill="#fdd7ae"/>
        <path id="Trazado_206825" data-name="Trazado 206825" d="M624.807,159.09H538.173a31.005,31.005,0,1,1,0-62.011h86.634a31.005,31.005,0,0,1,0,62.011Z" fill="none" stroke="#f9860b" stroke-miterlimit="10" stroke-width="1.261"/>
      </g>
    </g>
    <path id="Trazado_207132" data-name="Trazado 207132" d="M9.578-9.477H6.094V0H3.75V-9.477H.313v-1.9H9.578ZM13.04,0a2.507,2.507,0,0,1-.227-.758A2.732,2.732,0,0,1,10.68.156,3,3,0,0,1,8.622-.562a2.312,2.312,0,0,1-.816-1.812,2.389,2.389,0,0,1,1-2.062,4.915,4.915,0,0,1,2.879-.727h1.039v-.484a1.393,1.393,0,0,0-.3-.937,1.183,1.183,0,0,0-.949-.352,1.345,1.345,0,0,0-.895.273.929.929,0,0,0-.324.75H7.993a2.268,2.268,0,0,1,.453-1.359,3,3,0,0,1,1.281-.98,4.669,4.669,0,0,1,1.859-.355,3.689,3.689,0,0,1,2.48.785,2.747,2.747,0,0,1,.918,2.207v3.664a4.041,4.041,0,0,0,.336,1.82V0ZM11.172-1.57a1.945,1.945,0,0,0,.922-.223,1.462,1.462,0,0,0,.625-.6V-3.844h-.844q-1.7,0-1.8,1.172l-.008.133a.9.9,0,0,0,.3.7A1.153,1.153,0,0,0,11.172-1.57ZM24.336-4.148A5.119,5.119,0,0,1,23.469-.98,2.872,2.872,0,0,1,21.047.156,2.639,2.639,0,0,1,18.852-.9l-.1.9H16.719V-12h2.258v4.3a2.571,2.571,0,0,1,2.055-.914,2.9,2.9,0,0,1,2.426,1.137,5.126,5.126,0,0,1,.879,3.2Zm-2.258-.164a3.363,3.363,0,0,0-.406-1.871,1.374,1.374,0,0,0-1.211-.59,1.489,1.489,0,0,0-1.484.883v3.336a1.509,1.509,0,0,0,1.5.891,1.394,1.394,0,0,0,1.438-1.078A5.562,5.562,0,0,0,22.079-4.312ZM28.11,0H25.844V-12H28.11Zm6.758,0a2.507,2.507,0,0,1-.227-.758,2.732,2.732,0,0,1-2.133.914A3,3,0,0,1,30.45-.562a2.312,2.312,0,0,1-.816-1.812,2.389,2.389,0,0,1,1-2.062,4.915,4.915,0,0,1,2.879-.727h1.039v-.484a1.393,1.393,0,0,0-.3-.937,1.183,1.183,0,0,0-.949-.352,1.345,1.345,0,0,0-.895.273.929.929,0,0,0-.324.75H29.821a2.268,2.268,0,0,1,.453-1.359,3,3,0,0,1,1.281-.98,4.669,4.669,0,0,1,1.859-.355,3.689,3.689,0,0,1,2.48.785,2.747,2.747,0,0,1,.918,2.207v3.664a4.041,4.041,0,0,0,.336,1.82V0ZM33-1.57a1.945,1.945,0,0,0,.922-.223,1.462,1.462,0,0,0,.625-.6V-3.844H33.7q-1.7,0-1.8,1.172l-.008.133a.9.9,0,0,0,.3.7A1.153,1.153,0,0,0,33-1.57Zm10.125-.766a.727.727,0,0,0-.41-.652A4.659,4.659,0,0,0,41.4-3.414q-3.016-.633-3.016-2.562a2.323,2.323,0,0,1,.934-1.879,3.766,3.766,0,0,1,2.441-.754,4.053,4.053,0,0,1,2.574.758A2.388,2.388,0,0,1,45.3-5.883H43.04a1.092,1.092,0,0,0-.312-.8A1.322,1.322,0,0,0,41.75-7a1.351,1.351,0,0,0-.883.258.814.814,0,0,0-.312.656.7.7,0,0,0,.355.605,3.657,3.657,0,0,0,1.2.4,9.8,9.8,0,0,1,1.422.379A2.336,2.336,0,0,1,45.321-2.43a2.2,2.2,0,0,1-.992,1.871,4.28,4.28,0,0,1-2.562.715,4.47,4.47,0,0,1-1.887-.379,3.166,3.166,0,0,1-1.293-1.039,2.414,2.414,0,0,1-.469-1.426h2.141a1.179,1.179,0,0,0,.445.922,1.766,1.766,0,0,0,1.109.32,1.635,1.635,0,0,0,.98-.246A.766.766,0,0,0,43.125-2.336Zm7.281-1.953a5.094,5.094,0,0,1,.887-3.148,2.877,2.877,0,0,1,2.426-1.172,2.589,2.589,0,0,1,2.039.922V-12h2.266V0H55.985l-.109-.9A2.657,2.657,0,0,1,53.7.156,2.869,2.869,0,0,1,51.309-1.02,5.258,5.258,0,0,1,50.407-4.289Zm2.258.168A3.337,3.337,0,0,0,53.079-2.3a1.349,1.349,0,0,0,1.2.634,1.511,1.511,0,0,0,1.477-.884V-5.889A1.489,1.489,0,0,0,54.3-6.773Q52.665-6.773,52.665-4.121Zm11,4.277A4.15,4.15,0,0,1,60.637-.984a4.054,4.054,0,0,1-1.168-3.039v-.219a5.106,5.106,0,0,1,.492-2.277,3.612,3.612,0,0,1,1.395-1.547,3.914,3.914,0,0,1,2.059-.543,3.508,3.508,0,0,1,2.73,1.094,4.444,4.444,0,0,1,1,3.1v.922H61.758a2.1,2.1,0,0,0,.66,1.328,2,2,0,0,0,1.395.5,2.437,2.437,0,0,0,2.039-.945l1.109,1.242A3.389,3.389,0,0,1,65.586-.246,4.511,4.511,0,0,1,63.665.156Zm-.258-6.945a1.411,1.411,0,0,0-1.09.455,2.357,2.357,0,0,0-.535,1.3h3.141v-.181a1.681,1.681,0,0,0-.406-1.165A1.456,1.456,0,0,0,63.407-6.789Z" transform="translate(1017.064 3934.26)" fill="#12263f"/>
    <path id="Trazado_207131" data-name="Trazado 207131" d="M3.07-7.531A2.818,2.818,0,0,1,5.328-8.609q2.75,0,2.789,3.2V0H5.859V-5.352a1.57,1.57,0,0,0-.312-1.074,1.34,1.34,0,0,0-1.039-.348,1.537,1.537,0,0,0-1.437.766V0H.813V-12H3.07ZM13.711.156A4.15,4.15,0,0,1,10.684-.984,4.054,4.054,0,0,1,9.516-4.023v-.219a5.106,5.106,0,0,1,.492-2.277A3.612,3.612,0,0,1,11.4-8.066a3.914,3.914,0,0,1,2.059-.543,3.508,3.508,0,0,1,2.73,1.094,4.444,4.444,0,0,1,1,3.1v.922H11.8a2.1,2.1,0,0,0,.66,1.328,2,2,0,0,0,1.395.5A2.437,2.437,0,0,0,15.9-2.609l1.109,1.242A3.389,3.389,0,0,1,15.633-.246,4.511,4.511,0,0,1,13.711.156Zm-.258-6.945a1.411,1.411,0,0,0-1.09.455,2.357,2.357,0,0,0-.535,1.3h3.141v-.181a1.681,1.681,0,0,0-.406-1.165A1.456,1.456,0,0,0,13.453-6.789Zm8.531,5.125A1.481,1.481,0,0,0,23-2.008a1.2,1.2,0,0,0,.406-.914h2.117a2.9,2.9,0,0,1-.469,1.574A3.093,3.093,0,0,1,23.793-.238a3.949,3.949,0,0,1-1.77.395A3.67,3.67,0,0,1,19.164-1,4.56,4.56,0,0,1,18.117-4.18v-.148a4.508,4.508,0,0,1,1.039-3.117,3.627,3.627,0,0,1,2.852-1.164,3.555,3.555,0,0,1,2.543.9,3.2,3.2,0,0,1,.973,2.4H23.406A1.551,1.551,0,0,0,23-6.377a1.354,1.354,0,0,0-1.031-.412,1.36,1.36,0,0,0-1.191.575,3.333,3.333,0,0,0-.4,1.866v.235a3.375,3.375,0,0,0,.4,1.878A1.377,1.377,0,0,0,21.984-1.664Zm7.031-5.867a2.818,2.818,0,0,1,2.258-1.078q2.75,0,2.789,3.2V0H31.8V-5.352a1.57,1.57,0,0,0-.312-1.074,1.34,1.34,0,0,0-1.039-.348,1.537,1.537,0,0,0-1.437.766V0H26.758V-12h2.258Zm6.4,3.227A5.013,5.013,0,0,1,35.9-6.547,3.546,3.546,0,0,1,37.293-8.07a4.069,4.069,0,0,1,2.113-.539A3.849,3.849,0,0,1,42.2-7.562a4.2,4.2,0,0,1,1.207,2.844l.016.578A4.418,4.418,0,0,1,42.336-1.02,3.775,3.775,0,0,1,39.422.156,3.793,3.793,0,0,1,36.5-1.016,4.5,4.5,0,0,1,35.414-4.2Zm2.258.16A3.16,3.16,0,0,0,38.125-2.3a1.5,1.5,0,0,0,1.3.638,1.5,1.5,0,0,0,1.281-.63,3.457,3.457,0,0,0,.461-2.015A3.128,3.128,0,0,0,40.7-6.14a1.5,1.5,0,0,0-1.3-.649,1.474,1.474,0,0,0-1.281.646A3.516,3.516,0,0,0,37.672-4.144ZM49.391-2.336a.727.727,0,0,0-.41-.652,4.659,4.659,0,0,0-1.316-.426q-3.016-.633-3.016-2.562a2.323,2.323,0,0,1,.934-1.879,3.766,3.766,0,0,1,2.441-.754,4.053,4.053,0,0,1,2.574.758,2.388,2.388,0,0,1,.965,1.969H49.3a1.092,1.092,0,0,0-.312-.8A1.322,1.322,0,0,0,48.016-7a1.351,1.351,0,0,0-.883.258.814.814,0,0,0-.312.656.7.7,0,0,0,.355.605,3.657,3.657,0,0,0,1.2.4A9.8,9.8,0,0,1,49.8-4.7,2.336,2.336,0,0,1,51.586-2.43a2.2,2.2,0,0,1-.992,1.871,4.28,4.28,0,0,1-2.562.715,4.47,4.47,0,0,1-1.887-.379,3.166,3.166,0,0,1-1.293-1.039,2.414,2.414,0,0,1-.469-1.426h2.141a1.179,1.179,0,0,0,.445.922,1.766,1.766,0,0,0,1.109.32,1.635,1.635,0,0,0,.98-.246A.766.766,0,0,0,49.391-2.336Z" transform="translate(1027.4 3954.26)" fill="#12263f"/>
    <g id="Grupo_150110" data-name="Grupo 150110" transform="translate(472 3811.5)">
      <g id="Grupo_150109" data-name="Grupo 150109" clip-path="url(#clip-path)">
        <line id="Línea_1236" data-name="Línea 1236" y2="28.642" transform="translate(74.953 208.453)" fill="none" stroke="#b3b3b3" stroke-miterlimit="10" stroke-width="3"/>
        <path id="Trazado_206826" data-name="Trazado 206826" d="M63.844,228.669l11.109,4.72,11.11-4.72L74.953,255Z" fill="#b3b3b3"/>
        <path id="Trazado_206827" data-name="Trazado 206827" d="M74.953,116.748v-52.7H206.524" fill="none" stroke="#b3b3b3" stroke-miterlimit="10" stroke-width="3"/>
        <path id="Trazado_206828" data-name="Trazado 206828" d="M198.1,75.152l4.72-11.109-4.72-11.11,26.335,11.11Z" fill="#b3b3b3"/>
        <path id="Trazado_206829" data-name="Trazado 206829" d="M501.055,130.76H456.969V255H433.194" fill="none" stroke="#b3b3b3" stroke-miterlimit="10" stroke-width="3"/>
        <path id="Trazado_206830" data-name="Trazado 206830" d="M441.62,243.9,436.9,255l4.72,11.11L415.285,255Z" fill="#b3b3b3"/>
      </g>
    </g>
  </g>
</svg>
