<svg id="Grupo_147600" data-name="Grupo 147600" xmlns="http://www.w3.org/2000/svg" width="64.711" height="84.794" viewBox="0 0 64.711 84.794">
  <path id="Trazado_117753" data-name="Trazado 117753" d="M2927.122,1333.566h28.362l.382.381a8.037,8.037,0,0,0,2.5,4.778l.014,6.178a5.834,5.834,0,0,0,5.828,5.815h.013l11.637-.026h0a5.835,5.835,0,0,0,5.816-5.842l-.013-5.965c.148-.129.294-.262.434-.4a8,8,0,0,0,2.346-5.7l-.011-5.1h0l-.018-7.948a12.443,12.443,0,0,1-7.8-4.776,4.689,4.689,0,0,0-2.06-1.2v-30.567a2.186,2.186,0,0,0-.719-1.621l-16.663-15.08a2.186,2.186,0,0,0-1.467-.566h-28.578a7.4,7.4,0,0,0-7.4,7.394v52.853A7.4,7.4,0,0,0,2927.122,1333.566Zm30.092-61.137,10.219,9.249h-10.219Zm17.761,47.325a1.512,1.512,0,0,0,1.513,1.51h0a1.513,1.513,0,0,0,1.51-1.516h0a1.691,1.691,0,0,1,3.381-.007l.018,7.947h0l.011,5.1a5,5,0,0,1-1.464,3.558c-.045.045-.094.084-.14.127l-19.375.044a5.007,5.007,0,0,1-1.6-3.362,1.515,1.515,0,0,0-.443-.975l-7.578-7.544a1.69,1.69,0,0,1,2.385-2.4l3.016,3a1.514,1.514,0,0,0,2.581-1.076l-.042-21.922a1.69,1.69,0,0,1,1.687-1.694h0a1.691,1.691,0,0,1,1.691,1.685l.024,14.477v.007a1.513,1.513,0,0,0,1.513,1.51h0a1.512,1.512,0,0,0,1.51-1.516h0a1.693,1.693,0,0,1,1.687-1.694h0a1.692,1.692,0,0,1,1.69,1.687l0,1.6a1.512,1.512,0,0,0,1.513,1.509h0a1.513,1.513,0,0,0,1.51-1.517h0a1.69,1.69,0,0,1,1.687-1.694h0a1.69,1.69,0,0,1,1.69,1.687Zm3.67,25.1a2.806,2.806,0,0,1-2.8,2.808l-11.637.025h-.007a2.806,2.806,0,0,1-2.8-2.8l-.012-5.352,17.24-.04Zm-54.546-71.539a3.027,3.027,0,0,1,3.023-3.022h27.065V1284.7h15.99v28.65a4.7,4.7,0,0,0-3.308-1.359h-.01a4.729,4.729,0,0,0-1.687.313l-.018-10.075a4.717,4.717,0,0,0-4.717-4.707h-.01a4.717,4.717,0,0,0-4.707,4.727l.034,18.27-.428-.426a4.717,4.717,0,1,0-6.655,6.687l2.421,2.41h-23.969a3.026,3.026,0,0,1-3.023-3.022Z" transform="translate(-2919.727 -1265.924)" fill="#fff"/>
  <path id="Trazado_117754" data-name="Trazado 117754" d="M2935.911,1300.13l10.173-10.173a1.513,1.513,0,1,0-2.14-2.141l-8.033,8.033-2.564-2.564a1.514,1.514,0,0,0-2.141,2.141Z" transform="translate(-2921.042 -1268.479)" fill="#fff"/>
  <path id="Trazado_117755" data-name="Trazado 117755" d="M2935.911,1314.559l10.173-10.174a1.513,1.513,0,0,0-2.14-2.14l-8.033,8.033-2.564-2.564a1.513,1.513,0,1,0-2.141,2.14Z" transform="translate(-2921.042 -1270.197)" fill="#fff"/>
  <path id="Trazado_117756" data-name="Trazado 117756" d="M2935.911,1328.989l10.173-10.173a1.513,1.513,0,0,0-2.14-2.14l-8.033,8.033-2.564-2.564a1.513,1.513,0,0,0-2.141,2.14Z" transform="translate(-2921.042 -1271.916)" fill="#fff"/>
  <path id="Trazado_117757" data-name="Trazado 117757" d="M2955.234,1298.268h14.674a1.513,1.513,0,0,0,0-3.027h-14.674a1.513,1.513,0,0,0,0,3.027Z" transform="translate(-2923.776 -1269.416)" fill="#fff"/>
</svg>
